<svg xmlns="http://www.w3.org/2000/svg" viewBox="0 0 86.531 86.531">
  <defs>
    <style>
      .cls-1 {
        opacity: 0.15;
      }
    </style>
  </defs>
  <g id="charts" class="cls-1">
    <g id="Group_245" data-name="Group 245">
      <g id="Group_244" data-name="Group 244">
        <path id="Path_217" data-name="Path 217" d="M5.769,72.109V66.9L18.95,52.395a4.24,4.24,0,0,0,5.567-.13l10.2,7.644a4.327,4.327,0,0,0,8.552-.779,3.612,3.612,0,0,0-.087-.793L54.486,45.775a4.529,4.529,0,0,0,1.759.375,4.326,4.326,0,0,0,2.783-1.038L69.6,54.5a4.4,4.4,0,0,0-.375,1.745,4.38,4.38,0,1,0,2.365-3.836l-11.018-9.85a4.246,4.246,0,0,0,0-.736,4.327,4.327,0,1,0-8.653,0,4.24,4.24,0,0,0,.49,1.947L41.621,55.755a4.285,4.285,0,0,0-6.3,1.024L25.959,49.7a3.344,3.344,0,0,0,0-.663,4.327,4.327,0,1,0-8.653,0,3.611,3.611,0,0,0,.087.793L5.769,62.605V46.741L19.686,34.093a4.413,4.413,0,0,0,1.947.519,4.327,4.327,0,0,0,4.327-4.327,3.744,3.744,0,0,0-.087-.808L36.761,17.306a4.247,4.247,0,0,0,.736,0,4.326,4.326,0,0,0,3.086-1.3l11.537,3.836a4.327,4.327,0,0,0,8.451-1.7l10.1-6.317a4.327,4.327,0,1,0-1.442-3.173,4.354,4.354,0,0,0,0,.606l-10.1,6.317a4.326,4.326,0,0,0-6.822,1.312L41.823,13.369a3.6,3.6,0,0,0,0-.389,4.327,4.327,0,1,0-7.615,2.783L24.3,26.911a4.239,4.239,0,0,0-2.668-.952,4.327,4.327,0,0,0-4.327,4.327,4.2,4.2,0,0,0,.389,1.759L5.769,42.891V0H2.884V2.884H0V5.769H2.884V20.191H0v2.884H2.884V37.5H0v2.884H2.884V54.8H0v2.884H2.884V73.552a1.442,1.442,0,0,0,1.442,1.442H20.191v2.884h2.884V74.994H37.5v2.884h2.884V74.994H54.8v2.884h2.884V74.994H72.109v2.884h2.884V74.994H86.531V72.109ZM73.551,54.8a1.442,1.442,0,1,1-1.442,1.442A1.442,1.442,0,0,1,73.551,54.8ZM56.245,40.381A1.442,1.442,0,1,1,54.8,41.823,1.442,1.442,0,0,1,56.245,40.381ZM38.939,57.688A1.442,1.442,0,1,1,37.5,59.13,1.442,1.442,0,0,1,38.939,57.688Zm-17.306-10.1a1.442,1.442,0,1,1-1.442,1.442A1.442,1.442,0,0,1,21.633,47.592ZM73.551,7.211a1.442,1.442,0,1,1-1.442,1.442A1.442,1.442,0,0,1,73.551,7.211Zm-17.306,10.1A1.442,1.442,0,1,1,54.8,18.748,1.442,1.442,0,0,1,56.245,17.306ZM37.5,11.538a1.442,1.442,0,1,1-1.442,1.442A1.442,1.442,0,0,1,37.5,11.538ZM21.633,28.844a1.442,1.442,0,1,1-1.442,1.442A1.442,1.442,0,0,1,21.633,28.844Z"/>
      </g>
    </g>
    <g id="Group_247" data-name="Group 247" transform="translate(27.402 83.647)">
      <g id="Group_246" data-name="Group 246">
        <rect id="Rectangle_329" data-name="Rectangle 329" width="2.884" height="2.884"/>
      </g>
    </g>
    <g id="Group_249" data-name="Group 249" transform="translate(33.17 83.647)">
      <g id="Group_248" data-name="Group 248">
        <rect id="Rectangle_330" data-name="Rectangle 330" width="2.884" height="2.884"/>
      </g>
    </g>
    <g id="Group_251" data-name="Group 251" transform="translate(38.939 83.647)">
      <g id="Group_250" data-name="Group 250">
        <rect id="Rectangle_331" data-name="Rectangle 331" width="2.884" height="2.884"/>
      </g>
    </g>
    <g id="Group_253" data-name="Group 253" transform="translate(44.708 83.647)">
      <g id="Group_252" data-name="Group 252">
        <rect id="Rectangle_332" data-name="Rectangle 332" width="2.884" height="2.884"/>
      </g>
    </g>
    <g id="Group_255" data-name="Group 255" transform="translate(50.476 83.647)">
      <g id="Group_254" data-name="Group 254">
        <rect id="Rectangle_333" data-name="Rectangle 333" width="2.884" height="2.884"/>
      </g>
    </g>
    <g id="Group_257" data-name="Group 257" transform="translate(56.245 83.647)">
      <g id="Group_256" data-name="Group 256">
        <rect id="Rectangle_334" data-name="Rectangle 334" width="2.884" height="2.884"/>
      </g>
    </g>
  </g>
</svg>
