<svg xmlns="http://www.w3.org/2000/svg" viewBox="0 0 74.557 74.551">
  <defs>
    <style>
      .cls-1 {
        opacity: 0.15;
      }
    </style>
  </defs>
  <g id="tag" class="cls-1">
    <g id="Group_275" data-name="Group 275" transform="translate(21.248 21.249)">
      <g id="Group_274" data-name="Group 274">
        <path id="Path_226" data-name="Path 226" d="M167.767,137.915a3.728,3.728,0,0,0-5.272,0l-24.6,24.6a3.728,3.728,0,1,0,5.272,5.272l24.6-24.6A3.728,3.728,0,0,0,167.767,137.915Zm-1.758,3.513h0l-24.6,24.6a1.242,1.242,0,0,1-1.757-1.757l24.6-24.6a1.242,1.242,0,0,1,1.757,1.756Z" transform="translate(-136.799 -136.823)"/>
      </g>
    </g>
    <g id="Group_277" data-name="Group 277" transform="translate(22.367 22.367)">
      <g id="Group_276" data-name="Group 276">
        <path id="Path_227" data-name="Path 227" d="M150.218,144.021a6.213,6.213,0,1,0,6.213,6.213A6.213,6.213,0,0,0,150.218,144.021Zm2.635,8.85a3.82,3.82,0,0,1-5.271,0,3.728,3.728,0,0,1,0-5.272l0,0a3.728,3.728,0,0,1,5.271,5.274Z" transform="translate(-144.005 -144.021)"/>
      </g>
    </g>
    <g id="Group_279" data-name="Group 279" transform="translate(39.764 39.763)">
      <g id="Group_278" data-name="Group 278">
        <path id="Path_228" data-name="Path 228" d="M266.61,257.84a6.213,6.213,0,1,0,1.82,4.394A6.17,6.17,0,0,0,266.61,257.84Zm-1.756,7.03h0a3.82,3.82,0,0,1-5.271,0,3.728,3.728,0,1,1,5.272,0Z" transform="translate(-256.004 -256.021)"/>
      </g>
    </g>
    <g id="Group_281" data-name="Group 281" transform="translate(0 0)">
      <g id="Group_280" data-name="Group 280" transform="translate(0 0)">
        <path id="Path_229" data-name="Path 229" d="M74.42,47.861,68.987,37.3,74.42,26.737a1.248,1.248,0,0,0-.546-1.682L62.913,19.522,60.771,7.92a1.243,1.243,0,0,0-1.388-1.007L47.058,8.573,38.12.349a1.243,1.243,0,0,0-1.682,0L27.5,8.573,15.174,6.914A1.235,1.235,0,0,0,13.786,7.92l-2.141,11.6L.684,25.054a1.242,1.242,0,0,0-.551,1.669l0,.009L5.57,37.3.137,47.861a1.243,1.243,0,0,0,.538,1.673l.009,0,10.961,5.532,2.141,11.6a1.234,1.234,0,0,0,1.388,1.007L27.5,66.02l8.938,8.224a1.243,1.243,0,0,0,1.682,0l8.938-8.224,12.325,1.659a1.243,1.243,0,0,0,1.388-1.007l2.141-11.6,10.961-5.532a1.242,1.242,0,0,0,.551-1.669ZM61.237,53.135a1.243,1.243,0,0,0-.662.883L58.537,65.062l-11.73-1.578A1.242,1.242,0,0,0,45.8,63.8l-8.52,7.843L28.753,63.8a1.24,1.24,0,0,0-1.008-.318l-11.73,1.578L13.977,54.018a1.243,1.243,0,0,0-.662-.883L2.921,47.888,8.077,37.867a1.243,1.243,0,0,0,0-1.136L2.921,26.71l10.394-5.246a1.243,1.243,0,0,0,.662-.883L16.015,9.536l11.73,1.578a1.235,1.235,0,0,0,1.008-.318l8.525-7.843L45.8,10.8a1.242,1.242,0,0,0,1.008.318l11.73-1.578L60.58,20.58a1.243,1.243,0,0,0,.662.883L71.636,26.71,66.479,36.731a1.243,1.243,0,0,0,0,1.136l5.152,10.022Z" transform="translate(0 -0.021)"/>
      </g>
    </g>
  </g>
</svg>
