<svg xmlns="http://www.w3.org/2000/svg" viewBox="0 0 76.006 76.004">
  <defs>
    <style>
      .cls-1 {
        opacity: 0.15;
      }
    </style>
  </defs>
  <g id="graphic" class="cls-1">
    <g id="Group_259" data-name="Group 259" transform="translate(0 0)">
      <g id="Group_258" data-name="Group 258">
        <path id="Path_218" data-name="Path 218" d="M74.737,70.945H6.858L20.716,57.088l17.1,2.444a1.267,1.267,0,0,0,1.344-.76l7.075-16.5,3-.428a1.267,1.267,0,0,0-.358-2.508l-1.472.21L58,14.829,75.37,4.908a1.269,1.269,0,0,0-1.267-2.2L56.369,12.842a1.268,1.268,0,0,0-.536.6L44.466,39.968l-3.77.538a1.267,1.267,0,0,0,.36,2.508l2.242-.32-6.08,14.187L20.448,54.49a1.254,1.254,0,0,0-1.075.358L5.067,69.154V20.034l.238-.051a1.267,1.267,0,0,0,.973-1.5h0A1.248,1.248,0,0,0,5.067,17.5V1.275a1.267,1.267,0,1,0-2.533,0V17.742H1.267a1.267,1.267,0,0,0,0,2.533H2.533V36.743H1.267a1.267,1.267,0,0,0,0,2.533H2.533v15.2H1.267a1.267,1.267,0,0,0,0,2.533H2.533v15.2A1.267,1.267,0,0,0,3.8,73.479H19v1.267a1.267,1.267,0,1,0,2.533,0V73.479h15.2v1.267a1.267,1.267,0,1,0,2.533,0V73.479h15.2v1.267a1.267,1.267,0,1,0,2.533,0V73.479H74.737a1.267,1.267,0,0,0,0-2.533Z" transform="translate(0 -0.008)"/>
      </g>
    </g>
    <g id="Group_261" data-name="Group 261" transform="translate(7.422 15.519)">
      <g id="Group_260" data-name="Group 260">
        <path id="Path_219" data-name="Path 219" d="M54.86,99.022a1.267,1.267,0,0,0-1.5-.973v-.006l-5.477,1.179a1.267,1.267,0,0,0,.263,2.506,1.3,1.3,0,0,0,.267-.028l5.477-1.173A1.267,1.267,0,0,0,54.86,99.022Z" transform="translate(-46.875 -98.02)"/>
      </g>
    </g>
    <g id="Group_263" data-name="Group 263" transform="translate(16.551 13.934)">
      <g id="Group_262" data-name="Group 262">
        <path id="Path_220" data-name="Path 220" d="M112,92.411l-1.3-3.571a1.267,1.267,0,0,0-1.455-.806l-3.717.8a1.267,1.267,0,0,0,.531,2.478l2.637-.565.921,2.533A1.267,1.267,0,1,0,112,92.411Z" transform="translate(-104.529 -88.006)"/>
      </g>
    </g>
    <g id="Group_265" data-name="Group 265" transform="translate(23.719 23.426)">
      <g id="Group_264" data-name="Group 264">
        <path id="Path_221" data-name="Path 221" d="M155.484,157.672l-3.23-8.882a1.267,1.267,0,1,0-2.381.866l3.23,8.882a1.267,1.267,0,1,0,2.381-.866Z" transform="translate(-149.796 -147.956)"/>
      </g>
    </g>
    <g id="Group_267" data-name="Group 267" transform="translate(29.103 38.23)">
      <g id="Group_266" data-name="Group 266">
        <path id="Path_222" data-name="Path 222" d="M191.335,245.539a1.267,1.267,0,0,0-1.39-1.043l-2.744.391-.946-2.6a1.267,1.267,0,1,0-2.381.865l1.3,3.572a1.267,1.267,0,0,0,1.191.834,1.242,1.242,0,0,0,.18-.013L190.3,247A1.267,1.267,0,0,0,191.335,245.539Z" transform="translate(-183.797 -241.449)"/>
      </g>
    </g>
    <g id="Group_269" data-name="Group 269" transform="translate(53.204 38.002)">
      <g id="Group_268" data-name="Group 268">
        <path id="Path_223" data-name="Path 223" d="M344.584,243.207l-2.578-2.787a1.258,1.258,0,0,0-1.111-.4l-3.761.538a1.267,1.267,0,0,0,.285,2.517l.074-.011,3.1-.443,2.126,2.3a1.267,1.267,0,0,0,1.862-1.719Z" transform="translate(-336.01 -240.007)"/>
      </g>
    </g>
    <g id="Group_271" data-name="Group 271" transform="translate(62.451 43.904)">
      <g id="Group_270" data-name="Group 270">
        <path id="Path_224" data-name="Path 224" d="M400.913,282.352l-4.307-4.664a1.267,1.267,0,0,0-1.862,1.718l4.307,4.665a1.267,1.267,0,0,0,1.862-1.719Z" transform="translate(-394.409 -277.28)"/>
      </g>
    </g>
    <g id="Group_273" data-name="Group 273" transform="translate(69.626 51.677)">
      <g id="Group_272" data-name="Group 272">
        <path id="Path_225" data-name="Path 225" d="M444.512,329.586l-.016-.018-2.578-2.788a1.267,1.267,0,0,0-1.862,1.719l2.578,2.787a1.267,1.267,0,1,0,1.878-1.7Z" transform="translate(-439.721 -326.373)"/>
      </g>
    </g>
  </g>
</svg>
