<svg xmlns="http://www.w3.org/2000/svg" viewBox="0 0 88.744 63.39">
  <defs>
    <style>
      .cls-1 {
        opacity: 0.15;
      }
    </style>
  </defs>
  <g id="symbols" class="cls-1">
    <g id="_x31_0_32_" transform="translate(0 0)">
      <g id="Group_282" data-name="Group 282">
        <path id="Path_230" data-name="Path 230" d="M6.339,138.14a6.339,6.339,0,1,0,6.339,6.339A6.337,6.337,0,0,0,6.339,138.14Zm22.186-41.2h57.05a3.169,3.169,0,0,0,0-6.339H28.525a3.169,3.169,0,0,0,0,6.339ZM6.339,112.785a6.339,6.339,0,1,0,6.339,6.339A6.339,6.339,0,0,0,6.339,112.785Zm79.236,3.169H28.525a3.169,3.169,0,0,0,0,6.339h57.05a3.169,3.169,0,0,0,0-6.339Zm0,25.356H28.525a3.169,3.169,0,1,0,0,6.339h57.05a3.169,3.169,0,0,0,0-6.339ZM6.339,87.429a6.339,6.339,0,1,0,6.339,6.339A6.339,6.339,0,0,0,6.339,87.429Z" transform="translate(0 -87.429)"/>
      </g>
    </g>
  </g>
</svg>
