<svg xmlns="http://www.w3.org/2000/svg" xmlns:xlink="http://www.w3.org/1999/xlink" viewBox="0 0 159.022 147.632">
  <defs>
    <style>
      .cls-1 {
        fill: none;
      }

      .cls-2 {
        fill: url(#linear-gradient);
      }
    </style>

    <linearGradient id="linear-gradient" x1="0.5" x2="0.5" y2="1" gradientUnits="objectBoundingBox">
      <stop offset="0" stop-color="#8c42d5">
        <animate attributeName="stop-color" values="gray;blue;red;red;black;yellow;red;purple;lightblue" dur="5s" repeatCount="indefinite" />
      </stop>
      <stop offset="1" stop-color="#2452a2" stop-opacity=".5">
        <animate attributeName="stop-color" values="red;blue;red;purple;red;purple;blue;blue;red" dur="10s" repeatCount="indefinite" />
        <animate attributeName="offset" values=".95;.80;.60;.40;.20;.20;0;.20;.40;.60;.80;.95" dur="10s" repeatCount="indefinite" />
      </stop>
    </linearGradient>
  </defs>
  <g id="LogoLagbe-07" transform="translate(-68.02 -80.385)">
    <path id="Path_249" data-name="Path 249" class="cls-1" d="M120.864,131.547l4.3-13.287H114.317l-3.587,13.287Z" transform="translate(25.994 23.052)"/>
    <path id="Path_250" data-name="Path 250" class="cls-1" d="M144.759,140.7l7.223-13.223-9.893.016-6.5,13.239Z" transform="translate(41.125 28.663)"/>
    <rect id="Rectangle_463" data-name="Rectangle 463" class="cls-1" width="18.242" height="12.579" transform="translate(172.339 127.124)"/>
    <path id="Path_251" data-name="Path 251" class="cls-1" d="M110.73,140.807l3.587-13.287-10.054.016-2.863,13.3Z" transform="translate(20.316 28.688)"/>
    <path id="Path_252" data-name="Path 252" class="cls-1" d="M137.967,140.729l6.483-13.239-9.941.016-5.759,13.239Z" transform="translate(36.962 28.669)"/>
    <rect id="Rectangle_464" data-name="Rectangle 464" class="cls-1" width="18.242" height="5.003" transform="translate(172.339 120.528)"/>
    <path id="Path_253" data-name="Path 253" class="cls-1" d="M128.166,131.531,133.2,118.26H122.375l-4.3,13.271Z" transform="translate(30.468 23.052)"/>
    <path id="Path_254" data-name="Path 254" class="cls-1" d="M86.264,190.454a1.721,1.721,0,0,0,1.319.611h4.955a3.3,3.3,0,0,1-.466-2.268l12.113-77.037H98.248L85.862,188.974a1.737,1.737,0,0,0,.4,1.48Z" transform="translate(10.84 19.096)"/>
    <path id="Path_255" data-name="Path 255" class="cls-1" d="M117.538,140.791l4.311-13.271H111.811l-3.571,13.287Z" transform="translate(24.479 28.688)"/>
    <path id="Path_256" data-name="Path 256" class="cls-1" d="M148.327,105.34h-43.5v4.987h43.5Z" transform="translate(22.404 15.188)"/>
    <path id="Path_257" data-name="Path 257" class="cls-1" d="M102.273,136.812,99.41,150.1l8.51-.032,3.587-13.287Z" transform="translate(19.105 34.323)"/>
    <rect id="Rectangle_465" data-name="Rectangle 465" class="cls-1" width="43.481" height="12.579" transform="translate(127.234 127.124)"/>
    <path id="Path_258" data-name="Path 258" class="cls-1" d="M124.352,140.765l5.035-13.255H119.381L115.07,140.8Z" transform="translate(28.636 28.681)"/>
    <path id="Path_259" data-name="Path 259" class="cls-1" d="M116.381,136.782l-4.311,13.271,8.461-.032,5.035-13.271Z" transform="translate(26.81 34.305)"/>
    <path id="Path_260" data-name="Path 260" class="cls-1" d="M123.435,136.756,118.4,150.011l8.429-.032,5.759-13.239Z" transform="translate(30.663 34.299)"/>
    <path id="Path_261" data-name="Path 261" class="cls-1" d="M151.567,140.687l7.947-13.207h-9.861L142.43,140.7Z" transform="translate(45.288 28.663)"/>
    <path id="Path_262" data-name="Path 262" class="cls-1" d="M109.327,136.786l-3.587,13.287,8.494-.032,4.311-13.271Z" transform="translate(22.957 34.317)"/>
    <path id="Path_263" data-name="Path 263" class="cls-1" d="M106.763,127.53l-10.07.016-2.123,13.3,9.346-.016Z" transform="translate(16.159 28.694)"/>
    <path id="Path_264" data-name="Path 264" class="cls-1" d="M143.74,149.909l8.268-.032,8.654-13.207-8.976.032Z" transform="translate(46.085 34.256)"/>
    <path id="Path_265" data-name="Path 265" class="cls-1" d="M145.021,159.071a1.158,1.158,0,0,0,.965-.515l8.333-12.676h-8.172L138.2,159.087h6.821Z" transform="translate(42.713 39.862)"/>
    <path id="Path_266" data-name="Path 266" class="cls-1" d="M139.577,145.932l-7.207,13.223,7.5-.032,7.947-13.223Z" transform="translate(39.165 39.874)"/>
    <path id="Path_267" data-name="Path 267" class="cls-1" d="M135.49,131.515l5.759-13.255H130.455l-5.035,13.271Z" transform="translate(34.935 23.052)"/>
    <path id="Path_268" data-name="Path 268" class="cls-1" d="M120.72,159.221l7.577-.032,6.483-13.239-8.3.032Z" transform="translate(32.075 39.905)"/>
    <path id="Path_269" data-name="Path 269" class="cls-1" d="M113.54,131.547l3.571-13.287H106.237l-2.847,13.3Z" transform="translate(21.527 23.052)"/>
    <path id="Path_270" data-name="Path 270" class="cls-1" d="M158.353,140.661l8.67-13.191h-9.813l-7.931,13.223Z" transform="translate(49.457 28.657)"/>
    <path id="Path_271" data-name="Path 271" class="cls-1" d="M98.013,119.235,96.05,131.573h10.167l2.847-13.3H99.187A1.174,1.174,0,0,0,98.013,119.235Z" transform="translate(17.06 23.058)"/>
    <path id="Path_272" data-name="Path 272" class="cls-1" d="M141.291,145.93l-8.252.032-6.5,13.223,7.544-.032Z" transform="translate(35.617 39.892)"/>
    <path id="Path_273" data-name="Path 273" class="cls-1" d="M150.11,131.483l7.207-13.223H146.6L140.12,131.5Z" transform="translate(43.882 23.052)"/>
    <path id="Path_274" data-name="Path 274" class="cls-1" d="M157.411,131.483l7.947-13.223H154.677l-7.207,13.223Z" transform="translate(48.355 23.052)"/>
    <path id="Path_275" data-name="Path 275" class="cls-1" d="M164.767,131.467l7.48-11.405a1.174,1.174,0,0,0,0-1.19,1.158,1.158,0,0,0-1.03-.611h-8.477l-7.931,13.207Z" transform="translate(52.823 23.052)"/>
    <path id="Path_276" data-name="Path 276" class="cls-1" d="M104.463,136.8l-9.25.016L93.09,150.135l8.526-.032Z" transform="translate(15.258 34.336)"/>
    <path id="Path_277" data-name="Path 277" class="cls-1" d="M100.283,146.082,97.42,159.369l7.705-.032,3.587-13.287Z" transform="translate(17.894 39.965)"/>
    <path id="Path_278" data-name="Path 278" class="cls-1" d="M132.77,131.515l10.022-.016,6.5-13.239H138.529Z" transform="translate(39.409 23.052)"/>
    <path id="Path_279" data-name="Path 279" class="cls-1" d="M106.821,146.052l-3.571,13.287,7.673-.048,4.3-13.271Z" transform="translate(21.442 39.947)"/>
    <path id="Path_280" data-name="Path 280" class="cls-1" d="M119.925,146.018l-5.035,13.255,7.609-.048,5.775-13.255Z" transform="translate(28.526 39.917)"/>
    <path id="Path_281" data-name="Path 281" class="cls-1" d="M121.91,140.771l9.25-.016,5.759-13.255-9.974.016Z" transform="translate(32.799 28.675)"/>
    <path id="Path_282" data-name="Path 282" class="cls-1" d="M113.381,146.032,109.07,159.3l3.362-.016,4.279-.032L121.746,146Z" transform="translate(24.984 39.935)"/>
    <path id="Path_283" data-name="Path 283" class="cls-1" d="M144.623,136.706,137.4,149.929l8.317-.032,7.947-13.207Z" transform="translate(42.226 34.269)"/>
    <path id="Path_284" data-name="Path 284" class="cls-1" d="M130.5,136.752l-5.775,13.239,8.4-.032,6.5-13.239Z" transform="translate(34.515 34.287)"/>
    <path id="Path_285" data-name="Path 285" class="cls-1" d="M137.553,136.726l-6.483,13.223,8.349-.016,7.223-13.223Z" transform="translate(38.374 34.281)"/>
    <path id="Path_286" data-name="Path 286" class="cls-1" d="M93.659,146.09l-1.914,11.952a1.19,1.19,0,0,0,.273.949,1.11,1.11,0,0,0,.869.4h6.435l2.847-13.3Z" transform="translate(14.432 39.99)"/>
    <path id="Path_287" data-name="Path 287" class="cls-1" d="M134.81,167.27a2.96,2.96,0,1,0,2.96,2.96A2.96,2.96,0,0,0,134.81,167.27Z" transform="translate(38.849 52.88)"/>
    <path id="Path_288" data-name="Path 288" class="cls-1" d="M106.43,167.27a2.96,2.96,0,1,0,2.96,2.96A2.96,2.96,0,0,0,106.43,167.27Z" transform="translate(21.576 52.88)"/>
    <path id="Path_289" data-name="Path 289" class="cls-2" d="M108.714,90.011h35.84v18.226c.29.322.547.66.8.981v-19.3a.8.8,0,0,0-.8-.8h-35.84a.82.82,0,0,0-.8.8v23.6h.8Z" transform="translate(24.278 5.31)"/>
    <path id="Path_290" data-name="Path 290" class="cls-2" d="M109.214,90.474h34.232v16.537c.273.29.547.6.8.9V89.67H108.41v23.6h.8Z" transform="translate(24.582 5.651)"/>
    <path id="Path_291" data-name="Path 291" class="cls-2" d="M92.093,158.991a1.19,1.19,0,0,1-.273-.949l1.914-11.952-2.123,13.3h1.351a1.11,1.11,0,0,1-.869-.4Z" transform="translate(14.357 39.99)"/>
    <path id="Path_292" data-name="Path 292" class="cls-2" d="M120.72,154.212v.016l7.577-.048h0Z" transform="translate(32.075 44.914)"/>
    <path id="Path_293" data-name="Path 293" class="cls-2" d="M96.05,131.579l1.963-12.338a1.174,1.174,0,0,1,1.158-.981h-1Z" transform="translate(17.06 23.052)"/>
    <path id="Path_294" data-name="Path 294" class="cls-2" d="M145.946,158.556a1.158,1.158,0,0,1-.965.515h.627l8.67-13.191h0Z" transform="translate(42.689 39.862)"/>
    <path id="Path_295" data-name="Path 295" class="cls-2" d="M148.88,149.877h0l8.654-13.207h0Z" transform="translate(49.213 34.256)"/>
    <path id="Path_296" data-name="Path 296" class="cls-2" d="M154.92,140.661h0l8.67-13.191h0Z" transform="translate(52.89 28.657)"/>
    <path id="Path_297" data-name="Path 297" class="cls-2" d="M126.54,154.182l7.544-.032h0Z" transform="translate(35.617 44.895)"/>
    <path id="Path_298" data-name="Path 298" class="cls-2" d="M114.89,154.258l7.609-.048-7.609.048Z" transform="translate(28.526 44.932)"/>
    <path id="Path_299" data-name="Path 299" class="cls-2" d="M187.309,118.253h22.376a1.914,1.914,0,0,1,1.609.8,2.155,2.155,0,0,1,.273.5,1.963,1.963,0,0,1-.193,1.753l-7.287,11.1-.965,1.464-8.767,13.335-.965,1.464-8.751,13.352-.965,1.464-8.638,13.062a1.11,1.11,0,0,1-.177.209,1.9,1.9,0,0,1-1.19.643H93.124a1.9,1.9,0,0,1-1.4-.6h0l-.145.933a2.7,2.7,0,0,0,1.609.5h0l80.431-.45a2.783,2.783,0,0,0,2.3-1.239l36.323-55.3a2.751,2.751,0,0,0,.129-2.831,2.8,2.8,0,0,0-2.445-1.464H177.851v.8Z" transform="translate(14.339 22.254)"/>
    <path id="Path_300" data-name="Path 300" class="cls-2" d="M97.5,118.322a1.9,1.9,0,0,1,.9-.257h9.394v-.8H98.414a3.089,3.089,0,0,0-.949.161l-.145,1.013A.563.563,0,0,1,97.5,118.322Z" transform="translate(17.833 22.443)"/>
    <path id="Path_301" data-name="Path 301" class="cls-2" d="M96.693,127.54l-2.123,13.3,2.123-13.3Z" transform="translate(16.159 28.7)"/>
    <path id="Path_302" data-name="Path 302" class="cls-2" d="M116.46,118.064h31.867v-.8h-43.5v.8h11.63Z" transform="translate(22.404 22.443)"/>
    <path id="Path_303" data-name="Path 303" class="cls-2" d="M132.87,118.064h18.242v-.8H132.87Z" transform="translate(39.469 22.443)"/>
    <path id="Path_304" data-name="Path 304" class="cls-2" d="M95.213,136.81,93.09,150.129l2.123-13.319Z" transform="translate(15.258 34.342)"/>
    <path id="Path_305" data-name="Path 305" class="cls-2" d="M168.5,118.871a1.174,1.174,0,0,1,0,1.19L161,131.467h0l8.349-12.708a2.155,2.155,0,0,0-.273-.5h-1.609a1.158,1.158,0,0,1,1.03.611Z" transform="translate(56.59 23.052)"/>
    <path id="Path_306" data-name="Path 306" class="cls-2" d="M161.4,131.278h0a.708.708,0,0,1,.434.145l7.287-11.1a1.963,1.963,0,0,0,.193-1.753l-8.349,12.708Z" transform="translate(56.572 23.24)"/>
    <path id="Path_307" data-name="Path 307" class="cls-2" d="M142.83,159.071h.434a.708.708,0,0,1,.4.129,1.109,1.109,0,0,0,.177-.209l8.622-13.11H151.5Z" transform="translate(45.531 39.862)"/>
    <path id="Path_308" data-name="Path 308" class="cls-2" d="M154.92,140.661h.434a.82.82,0,0,1,.434.145l8.767-13.336h-.965Z" transform="translate(52.89 28.657)"/>
    <path id="Path_309" data-name="Path 309" class="cls-2" d="M148.88,149.877h.434a.708.708,0,0,1,.434.145L158.5,136.67h-.965Z" transform="translate(49.213 34.256)"/>
    <path id="Path_310" data-name="Path 310" class="cls-2" d="M144.977,145.9l-7.947,13.223,1.882-.016,7.947-13.207Z" transform="translate(42.001 39.874)"/>
    <path id="Path_311" data-name="Path 311" class="cls-2" d="M142.57,149.9h1.882L152.4,136.69h-1.882Z" transform="translate(45.373 34.269)"/>
    <path id="Path_312" data-name="Path 312" class="cls-2" d="M148.11,140.693h1.882l7.931-13.223-1.866.016Z" transform="translate(48.745 28.657)"/>
    <path id="Path_313" data-name="Path 313" class="cls-2" d="M155.532,131.467l7.931-13.207H161.6l-7.947,13.223Z" transform="translate(52.117 23.052)"/>
    <path id="Path_314" data-name="Path 314" class="cls-2" d="M148.164,131.483l7.207-13.223h-1.834l-7.207,13.223Z" transform="translate(47.661 23.052)"/>
    <path id="Path_315" data-name="Path 315" class="cls-2" d="M143.483,136.716l-7.223,13.223,1.834-.016,7.223-13.223Z" transform="translate(41.533 34.275)"/>
    <path id="Path_316" data-name="Path 316" class="cls-2" d="M143.124,140.7l7.223-13.223h-1.834L141.29,140.7Z" transform="translate(44.594 28.663)"/>
    <path id="Path_317" data-name="Path 317" class="cls-2" d="M138.437,145.936l-7.207,13.223,1.834-.016,7.207-13.223Z" transform="translate(38.471 39.886)"/>
    <path id="Path_318" data-name="Path 318" class="cls-2" d="M131.23,154.156l1.834-.016-1.834.016Z" transform="translate(38.471 44.889)"/>
    <path id="Path_319" data-name="Path 319" class="cls-2" d="M136.266,140.729l6.5-13.239h-1.8l-6.483,13.239Z" transform="translate(40.449 28.669)"/>
    <path id="Path_320" data-name="Path 320" class="cls-2" d="M140.8,131.5l6.483-13.239H145.5L139,131.5Z" transform="translate(43.2 23.052)"/>
    <path id="Path_321" data-name="Path 321" class="cls-2" d="M131.913,145.95l-6.483,13.239,1.786-.016,6.5-13.223Z" transform="translate(34.941 39.905)"/>
    <path id="Path_322" data-name="Path 322" class="cls-2" d="M136.449,136.72l-6.5,13.239,1.8-.016,6.483-13.223Z" transform="translate(37.692 34.287)"/>
    <path id="Path_323" data-name="Path 323" class="cls-2" d="M125.43,154.186l1.786-.016-1.786.016Z" transform="translate(34.941 44.907)"/>
    <path id="Path_324" data-name="Path 324" class="cls-2" d="M133.433,131.515l5.759-13.255h-1.753l-5.759,13.255Z" transform="translate(38.745 23.052)"/>
    <path id="Path_325" data-name="Path 325" class="cls-2" d="M129.4,136.74l-5.759,13.239h1.753l5.775-13.239Z" transform="translate(33.852 34.299)"/>
    <path id="Path_326" data-name="Path 326" class="cls-2" d="M127.148,145.97h-1.753l-5.775,13.255,1.769-.016Z" transform="translate(31.405 39.917)"/>
    <path id="Path_327" data-name="Path 327" class="cls-2" d="M129.413,140.739l5.759-13.239h-1.753l-5.759,13.255Z" transform="translate(36.298 28.675)"/>
    <path id="Path_328" data-name="Path 328" class="cls-2" d="M119.62,154.216h1.769V154.2Z" transform="translate(31.405 44.926)"/>
    <path id="Path_329" data-name="Path 329" class="cls-2" d="M122.561,140.765,127.6,127.51h-1.721l-5.035,13.255Z" transform="translate(32.148 28.681)"/>
    <path id="Path_330" data-name="Path 330" class="cls-2" d="M120.576,146h-1.721l-5.035,13.255h1.721Z" transform="translate(27.875 39.935)"/>
    <path id="Path_331" data-name="Path 331" class="cls-2" d="M126.071,131.531l5.035-13.271h-1.721l-5.035,13.271Z" transform="translate(34.284 23.052)"/>
    <path id="Path_332" data-name="Path 332" class="cls-2" d="M122.365,136.75l-5.035,13.271,1.721-.016,5.035-13.255Z" transform="translate(30.011 34.305)"/>
    <path id="Path_333" data-name="Path 333" class="cls-2" d="M113.82,154.24h0Z" transform="translate(27.875 44.95)"/>
    <path id="Path_334" data-name="Path 334" class="cls-2" d="M112.315,146.02l-4.3,13.271h1.689l4.311-13.271Z" transform="translate(24.345 39.947)"/>
    <path id="Path_335" data-name="Path 335" class="cls-2" d="M115.331,136.77l-4.311,13.271h1.689l4.311-13.271Z" transform="translate(26.171 34.317)"/>
    <path id="Path_336" data-name="Path 336" class="cls-2" d="M120.02,127.51l-1.689.016L114.02,140.8h1.689Z" transform="translate(27.997 28.681)"/>
    <path id="Path_337" data-name="Path 337" class="cls-2" d="M118.719,131.531l4.3-13.271h-1.689l-4.3,13.287Z" transform="translate(29.829 23.052)"/>
    <path id="Path_338" data-name="Path 338" class="cls-2" d="M114.944,118.26h-1.673L109.7,131.547h1.657Z" transform="translate(25.368 23.052)"/>
    <path id="Path_339" data-name="Path 339" class="cls-2" d="M108.287,136.78,104.7,150.067h1.673l3.587-13.287Z" transform="translate(22.324 34.323)"/>
    <path id="Path_340" data-name="Path 340" class="cls-2" d="M108.873,140.807l3.571-13.287h-1.657L107.2,140.807Z" transform="translate(23.846 28.688)"/>
    <path id="Path_341" data-name="Path 341" class="cls-2" d="M105.8,146.056l-3.587,13.287,1.673-.016,3.571-13.287Z" transform="translate(20.809 39.959)"/>
    <path id="Path_342" data-name="Path 342" class="cls-2" d="M99.247,146.07l-2.847,13.3,1.641-.016L100.9,146.07Z" transform="translate(17.273 39.978)"/>
    <path id="Path_343" data-name="Path 343" class="cls-2" d="M102.894,136.8h-1.657L98.39,150.1l1.641-.016Z" transform="translate(18.484 34.336)"/>
    <path id="Path_344" data-name="Path 344" class="cls-2" d="M104.011,131.563l2.847-13.3h-1.641l-2.847,13.3Z" transform="translate(20.906 23.052)"/>
    <path id="Path_345" data-name="Path 345" class="cls-2" d="M104.884,127.53h-1.657l-2.847,13.3h1.641Z" transform="translate(19.695 28.694)"/>
    <path id="Path_346" data-name="Path 346" class="cls-2" d="M98.228,118.26h-.177L95.96,131.579H96.1Z" transform="translate(17.005 23.052)"/>
    <path id="Path_347" data-name="Path 347" class="cls-2" d="M95.238,136.81h-.1L93.05,150.129h.064Z" transform="translate(15.234 34.342)"/>
    <path id="Path_348" data-name="Path 348" class="cls-2" d="M96.736,127.54h-.129l-2.107,13.3h.113Z" transform="translate(16.116 28.7)"/>
    <path id="Path_349" data-name="Path 349" class="cls-2" d="M93.681,146.09l-2.091,13.3h.032l2.123-13.3Z" transform="translate(14.345 39.99)"/>
    <path id="Path_350" data-name="Path 350" class="cls-2" d="M152,118.564h10.681l.483-.8H152.322a.66.66,0,0,1-.1.386Z" transform="translate(51.112 22.747)"/>
    <path id="Path_351" data-name="Path 351" class="cls-2" d="M132.37,118.564h4.649l.354-.8h-4.2A.8.8,0,0,1,132.37,118.564Z" transform="translate(39.165 22.747)"/>
    <path id="Path_352" data-name="Path 352" class="cls-2" d="M159.75,118.565H169.8a1.914,1.914,0,0,0-1.609-.8h-8.043a.772.772,0,0,1-.1.418Z" transform="translate(55.829 22.747)"/>
    <path id="Path_353" data-name="Path 353" class="cls-2" d="M128.55,118.564h6.145a.8.8,0,0,1-.8-.8h-5.1a.611.611,0,0,1,0,.29Z" transform="translate(36.84 22.747)"/>
    <path id="Path_354" data-name="Path 354" class="cls-2" d="M136.35,118.564h10.7l.386-.8H136.559a.724.724,0,0,1,0,.322Z" transform="translate(41.587 22.747)"/>
    <path id="Path_355" data-name="Path 355" class="cls-2" d="M120.75,118.564h10.826l.306-.8H120.959a1.385,1.385,0,0,1,0,.257Z" transform="translate(32.093 22.747)"/>
    <path id="Path_356" data-name="Path 356" class="cls-2" d="M116.26,117.76H105.3a.659.659,0,0,1,0,.177l-.145.627h10.874Z" transform="translate(22.604 22.747)"/>
    <path id="Path_357" data-name="Path 357" class="cls-2" d="M113,118.564h10.842l.273-.8H113.177a.853.853,0,0,1,0,.209Z" transform="translate(27.376 22.747)"/>
    <path id="Path_358" data-name="Path 358" class="cls-2" d="M144.359,118l-.209.418h.9a.756.756,0,0,1-.692-.418Z" transform="translate(46.335 22.893)"/>
    <path id="Path_359" data-name="Path 359" class="cls-2" d="M144.71,118.564h9.813l.45-.8h-9.459A.8.8,0,0,1,144.71,118.564Z" transform="translate(46.676 22.747)"/>
    <path id="Path_360" data-name="Path 360" class="cls-2" d="M98.377,118.546h9.893a.82.82,0,0,1-.515-.756H98.377a1.9,1.9,0,0,0-.9.257l-.1.547Z" transform="translate(17.869 22.766)"/>
    <path id="Path_361" data-name="Path 361" class="cls-2" d="M160.456,118.564l.241-.386a.772.772,0,0,0,.1-.418h-1.721l-.483.8Z" transform="translate(55.123 22.747)"/>
    <path id="Path_362" data-name="Path 362" class="cls-2" d="M152.694,118.564l.225-.418a.659.659,0,0,0,.1-.386H151.31l-.45.8Z" transform="translate(50.419 22.747)"/>
    <path id="Path_363" data-name="Path 363" class="cls-2" d="M143,118.564h1.786l.209-.418a.772.772,0,0,1-.113-.386h-1.5Z" transform="translate(45.635 22.747)"/>
    <path id="Path_364" data-name="Path 364" class="cls-2" d="M137.013,118.564l.209-.483a.724.724,0,0,0,0-.322h-1.609l-.354.8Z" transform="translate(40.924 22.747)"/>
    <path id="Path_365" data-name="Path 365" class="cls-2" d="M129.2,118.564l.193-.515a.611.611,0,0,0,0-.29h-1.609l-.306.8Z" transform="translate(36.189 22.747)"/>
    <path id="Path_366" data-name="Path 366" class="cls-2" d="M121.389,118.564l.193-.547a1.382,1.382,0,0,0,0-.257h-1.609l-.273.8Z" transform="translate(31.454 22.747)"/>
    <path id="Path_367" data-name="Path 367" class="cls-2" d="M113.633,118.564l.161-.6a.852.852,0,0,0,0-.209h-1.609l-.225.8Z" transform="translate(26.743 22.747)"/>
    <path id="Path_368" data-name="Path 368" class="cls-2" d="M104.33,118.564h1.335l.145-.627a.659.659,0,0,0,0-.177h-.676A.8.8,0,0,1,104.33,118.564Z" transform="translate(22.099 22.747)"/>
    <path id="Path_369" data-name="Path 369" class="cls-2" d="M104.15,118.23h.306A.917.917,0,0,1,104.15,118.23Z" transform="translate(21.99 23.033)"/>
    <path id="Path_370" data-name="Path 370" class="cls-2" d="M97.407,118.467l.1-.547a.563.563,0,0,0-.193.113v.434Z" transform="translate(17.827 22.845)"/>
    <path id="Path_371" data-name="Path 371" class="cls-2" d="M149.523,128.089l.885-1.609-9.99.016-.788,1.609Z" transform="translate(43.584 28.055)"/>
    <path id="Path_372" data-name="Path 372" class="cls-2" d="M121.029,126.52H110.894l-.434,1.609H120.5Z" transform="translate(25.83 28.079)"/>
    <path id="Path_373" data-name="Path 373" class="cls-2" d="M142.271,128.1l.788-1.609-10.022.016-.708,1.609Z" transform="translate(39.141 28.061)"/>
    <path id="Path_374" data-name="Path 374" class="cls-2" d="M135.013,128.109l.708-1.609-10.07.016-.611,1.609Z" transform="translate(34.704 28.067)"/>
    <path id="Path_375" data-name="Path 375" class="cls-2" d="M113.234,128.129l.434-1.609-10.15.016-.338,1.609Z" transform="translate(21.399 28.079)"/>
    <path id="Path_376" data-name="Path 376" class="cls-2" d="M156.781,128.089l.965-1.609H147.8l-.885,1.609Z" transform="translate(48.021 28.055)"/>
    <path id="Path_377" data-name="Path 377" class="cls-2" d="M154.21,128.079h9.813l1.062-1.609h-9.893Z" transform="translate(52.457 28.049)"/>
    <path id="Path_378" data-name="Path 378" class="cls-2" d="M127.756,128.119l.611-1.609H118.281l-.531,1.609Z" transform="translate(30.267 28.073)"/>
    <path id="Path_379" data-name="Path 379" class="cls-2" d="M105.96,128.139l.354-1.609-10.167.016-.257,1.609Z" transform="translate(16.962 28.085)"/>
    <path id="Path_380" data-name="Path 380" class="cls-2" d="M160.31,128.079l1.062-1.609h0l-1.062,1.609Z" transform="translate(56.17 28.049)"/>
    <path id="Path_381" data-name="Path 381" class="cls-2" d="M96.147,126.54h0l-.257,1.609h0Z" transform="translate(16.962 28.091)"/>
    <path id="Path_382" data-name="Path 382" class="cls-2" d="M161.788,126.47H161.4l-1.062,1.609h.965l.965-1.464a.708.708,0,0,0-.434-.145Z" transform="translate(56.188 28.048)"/>
    <path id="Path_383" data-name="Path 383" class="cls-2" d="M154.916,128.079l.981-1.609-1.882.016-.965,1.609Z" transform="translate(51.751 28.049)"/>
    <path id="Path_384" data-name="Path 384" class="cls-2" d="M147.614,128.089l.885-1.609h-1.834l-.885,1.609Z" transform="translate(47.327 28.055)"/>
    <path id="Path_385" data-name="Path 385" class="cls-2" d="M140.312,128.1l.788-1.609h-1.8l-.788,1.609Z" transform="translate(42.902 28.061)"/>
    <path id="Path_386" data-name="Path 386" class="cls-2" d="M131.24,128.109h1.753l.708-1.609h-1.753Z" transform="translate(38.477 28.067)"/>
    <path id="Path_387" data-name="Path 387" class="cls-2" d="M125.691,128.119l.611-1.609h-1.721l-.611,1.609Z" transform="translate(34.053 28.073)"/>
    <path id="Path_388" data-name="Path 388" class="cls-2" d="M118.389,128.119l.531-1.609-1.689.016-.531,1.609Z" transform="translate(29.628 28.073)"/>
    <path id="Path_389" data-name="Path 389" class="cls-2" d="M111.087,128.129l.434-1.609h-1.657l-.434,1.609Z" transform="translate(25.203 28.079)"/>
    <path id="Path_390" data-name="Path 390" class="cls-2" d="M103.807,128.139l.338-1.609H102.5l-.354,1.609Z" transform="translate(20.772 28.085)"/>
    <path id="Path_391" data-name="Path 391" class="cls-2" d="M96.2,126.54h-.145l-.241,1.609h.129Z" transform="translate(16.914 28.091)"/>
    <path id="Path_392" data-name="Path 392" class="cls-2" d="M137.441,137.329l.788-1.609-9.217.016-.692,1.625Z" transform="translate(36.7 33.678)"/>
    <path id="Path_393" data-name="Path 393" class="cls-2" d="M141.89,137.315l9.04-.016.965-1.609-9.137.016Z" transform="translate(44.959 33.66)"/>
    <path id="Path_394" data-name="Path 394" class="cls-2" d="M103.66,137.409l.354-1.609-9.346.016-.257,1.609Z" transform="translate(16.062 33.727)"/>
    <path id="Path_395" data-name="Path 395" class="cls-2" d="M110.858,135.78l-9.33.032-.338,1.609,9.234-.032Z" transform="translate(20.188 33.715)"/>
    <path id="Path_396" data-name="Path 396" class="cls-2" d="M115.265,135.782l-.515,1.609,9.185-.032.611-1.609Z" transform="translate(28.441 33.697)"/>
    <path id="Path_397" data-name="Path 397" class="cls-2" d="M144.189,137.325l.869-1.625-9.169.032-.788,1.609Z" transform="translate(40.827 33.666)"/>
    <path id="Path_398" data-name="Path 398" class="cls-2" d="M148.68,137.311l8.976-.032,1.062-1.609-9.073.032Z" transform="translate(49.092 33.648)"/>
    <path id="Path_399" data-name="Path 399" class="cls-2" d="M130.683,137.349l.708-1.609-9.25.016-.611,1.609Z" transform="translate(32.568 33.69)"/>
    <path id="Path_400" data-name="Path 400" class="cls-2" d="M117.187,137.379l.515-1.609-9.3.016-.434,1.609Z" transform="translate(24.315 33.709)"/>
    <path id="Path_401" data-name="Path 401" class="cls-2" d="M94.667,135.81l-.257,1.609h0Z" transform="translate(16.062 33.733)"/>
    <path id="Path_402" data-name="Path 402" class="cls-2" d="M154.26,137.279h0l1.062-1.609h0Z" transform="translate(52.488 33.648)"/>
    <path id="Path_403" data-name="Path 403" class="cls-2" d="M155.756,135.67h-.434l-1.062,1.609h.965l.965-1.464A.821.821,0,0,0,155.756,135.67Z" transform="translate(52.488 33.648)"/>
    <path id="Path_404" data-name="Path 404" class="cls-2" d="M149.392,137.3l.965-1.609h-1.882l-.965,1.609Z" transform="translate(48.38 33.66)"/>
    <path id="Path_405" data-name="Path 405" class="cls-2" d="M142.584,137.309l.869-1.609h-1.834l-.869,1.625Z" transform="translate(44.265 33.666)"/>
    <path id="Path_406" data-name="Path 406" class="cls-2" d="M135.776,137.329l.788-1.609h-1.786l-.788,1.609Z" transform="translate(40.151 33.678)"/>
    <path id="Path_407" data-name="Path 407" class="cls-2" d="M128.99,137.355l.692-1.625-1.753.016-.708,1.609Z" transform="translate(36.031 33.684)"/>
    <path id="Path_408" data-name="Path 408" class="cls-2" d="M120.46,137.359h1.721l.611-1.609h-1.721Z" transform="translate(31.916 33.697)"/>
    <path id="Path_409" data-name="Path 409" class="cls-2" d="M115.389,137.379l.515-1.609h-1.689l-.515,1.609Z" transform="translate(27.802 33.709)"/>
    <path id="Path_410" data-name="Path 410" class="cls-2" d="M108.6,137.389l.434-1.609h-1.673l-.434,1.609Z" transform="translate(23.682 33.715)"/>
    <path id="Path_411" data-name="Path 411" class="cls-2" d="M102.155,135.8h-1.641l-.354,1.609h1.657Z" transform="translate(19.561 33.727)"/>
    <path id="Path_412" data-name="Path 412" class="cls-2" d="M94.7,135.81h-.113l-.241,1.609h.1Z" transform="translate(16.025 33.733)"/>
    <path id="Path_413" data-name="Path 413" class="cls-2" d="M118.631,145l-.611,1.625,8.349-.048.692-1.609Z" transform="translate(30.431 39.308)"/>
    <path id="Path_414" data-name="Path 414" class="cls-2" d="M124.992,144.982l-.692,1.609,8.3-.032.788-1.609Z" transform="translate(34.253 39.296)"/>
    <path id="Path_415" data-name="Path 415" class="cls-2" d="M137.735,144.932l-.885,1.609,8.236-.032.965-1.609Z" transform="translate(41.892 39.265)"/>
    <path id="Path_416" data-name="Path 416" class="cls-2" d="M99.538,145.072,99.2,146.7l8.429-.032.418-1.625Z" transform="translate(18.977 39.351)"/>
    <path id="Path_417" data-name="Path 417" class="cls-2" d="M131.368,144.946l-.788,1.625,8.252-.032.885-1.609Z" transform="translate(38.076 39.284)"/>
    <path id="Path_418" data-name="Path 418" class="cls-2" d="M143.14,146.521l8.172-.032,1.062-1.609-8.268.032Z" transform="translate(45.72 39.253)"/>
    <path id="Path_419" data-name="Path 419" class="cls-2" d="M112.265,145.032l-.515,1.609,8.365-.032.611-1.609Z" transform="translate(26.615 39.326)"/>
    <path id="Path_420" data-name="Path 420" class="cls-2" d="M105.9,145.052l-.434,1.609,8.4-.032.531-1.609Z" transform="translate(22.793 39.339)"/>
    <path id="Path_421" data-name="Path 421" class="cls-2" d="M101.713,145.07l-8.526.032-.257,1.609,8.429-.032Z" transform="translate(15.161 39.369)"/>
    <path id="Path_422" data-name="Path 422" class="cls-2" d="M148.22,146.489h0l1.062-1.609h0Z" transform="translate(48.812 39.253)"/>
    <path id="Path_423" data-name="Path 423" class="cls-2" d="M149.7,144.88h-.418l-1.062,1.609h.965l.965-1.464a.708.708,0,0,0-.434-.145Z" transform="translate(48.812 39.253)"/>
    <path id="Path_424" data-name="Path 424" class="cls-2" d="M142.935,144.9l-.965,1.609h1.882l.965-1.609Z" transform="translate(45.008 39.265)"/>
    <path id="Path_425" data-name="Path 425" class="cls-2" d="M136.595,144.936l-.885,1.609,1.834-.016.885-1.609Z" transform="translate(41.198 39.278)"/>
    <path id="Path_426" data-name="Path 426" class="cls-2" d="M130.248,144.956l-.788,1.609h1.8l.788-1.625Z" transform="translate(37.394 39.29)"/>
    <path id="Path_427" data-name="Path 427" class="cls-2" d="M123.9,144.97l-.692,1.609h1.753l.692-1.609Z" transform="translate(33.59 39.308)"/>
    <path id="Path_428" data-name="Path 428" class="cls-2" d="M117.561,145.006l-.611,1.609h1.721l.611-1.625Z" transform="translate(29.78 39.32)"/>
    <path id="Path_429" data-name="Path 429" class="cls-2" d="M111.221,145.02l-.531,1.609H112.4l.515-1.609Z" transform="translate(25.97 39.339)"/>
    <path id="Path_430" data-name="Path 430" class="cls-2" d="M104.858,145.04l-.418,1.625,1.657-.016.434-1.609Z" transform="translate(22.166 39.351)"/>
    <path id="Path_431" data-name="Path 431" class="cls-2" d="M98.524,145.076l-.354,1.609h1.657l.338-1.625Z" transform="translate(18.35 39.363)"/>
    <path id="Path_432" data-name="Path 432" class="cls-2" d="M93.212,145.09h-.064L92.89,146.7h.064Z" transform="translate(15.137 39.381)"/>
    <path id="Path_433" data-name="Path 433" class="cls-2" d="M92.45,154.372h.016l6.338-.032-6.354.032Z" transform="translate(14.869 45.011)"/>
    <path id="Path_434" data-name="Path 434" class="cls-2" d="M122.614,154.21h-7.609l-.306.8h7.641a1.142,1.142,0,0,1,0-.322Z" transform="translate(28.411 44.932)"/>
    <path id="Path_435" data-name="Path 435" class="cls-2" d="M116.808,154.24h-7.641l-.257.8h7.657a.917.917,0,0,1,0-.29Z" transform="translate(24.887 44.95)"/>
    <path id="Path_436" data-name="Path 436" class="cls-2" d="M134.23,154.15h-7.544l-.386.8h7.609a.8.8,0,0,1,.1-.386Z" transform="translate(35.471 44.895)"/>
    <path id="Path_437" data-name="Path 437" class="cls-2" d="M140,154.11h-7.5l-.434.8h7.593a.773.773,0,0,1,.1-.418Z" transform="translate(38.982 44.871)"/>
    <path id="Path_438" data-name="Path 438" class="cls-2" d="M128.431,154.18h-7.577l-.354.82h7.625a.676.676,0,0,1,.08-.354Z" transform="translate(31.941 44.914)"/>
    <path id="Path_439" data-name="Path 439" class="cls-2" d="M145.831,154.08h-7.448l-.483.8h7.577a.756.756,0,0,1,.113-.4Z" transform="translate(42.531 44.853)"/>
    <path id="Path_440" data-name="Path 440" class="cls-2" d="M105.186,154.31H97.5l-.177.8h7.689a1.063,1.063,0,0,1,0-.225Z" transform="translate(17.833 44.993)"/>
    <path id="Path_441" data-name="Path 441" class="cls-2" d="M99.315,154.34H91.61v.209a1.9,1.9,0,0,0,1.4.6h6.209a.338.338,0,0,1,0-.177Z" transform="translate(14.357 45.011)"/>
    <path id="Path_442" data-name="Path 442" class="cls-2" d="M110.982,154.27h-7.657l-.225.8h7.689a1.222,1.222,0,0,1,0-.241Z" transform="translate(21.351 44.968)"/>
    <path id="Path_443" data-name="Path 443" class="cls-2" d="M143.4,154.08h-.434l-.241.37a.756.756,0,0,0-.113.4,1.9,1.9,0,0,0,1.19-.643A.708.708,0,0,0,143.4,154.08Z" transform="translate(45.397 44.853)"/>
    <path id="Path_444" data-name="Path 444" class="cls-2" d="M137.128,154.11l-.241.4a.772.772,0,0,0-.1.418h1.737l.483-.8Z" transform="translate(41.855 44.871)"/>
    <path id="Path_445" data-name="Path 445" class="cls-2" d="M131.352,154.15l-.225.418a.8.8,0,0,0-.1.386h1.721l.434-.8Z" transform="translate(38.35 44.895)"/>
    <path id="Path_446" data-name="Path 446" class="cls-2" d="M125.546,154.18l-.225.45a.675.675,0,0,0-.08.354h1.705l.386-.8Z" transform="translate(34.825 44.914)"/>
    <path id="Path_447" data-name="Path 447" class="cls-2" d="M119.7,154.216l-.209.483a1.143,1.143,0,0,0,0,.322H121.1l.354-.82Z" transform="translate(31.322 44.926)"/>
    <path id="Path_448" data-name="Path 448" class="cls-2" d="M113.9,154.24l-.193.515a.918.918,0,0,0,0,.29h1.609l.306-.8Z" transform="translate(27.798 44.95)"/>
    <path id="Path_449" data-name="Path 449" class="cls-2" d="M108.069,154.27l-.177.563a1.222,1.222,0,0,0,0,.241H109.5l.257-.8Z" transform="translate(24.264 44.968)"/>
    <path id="Path_450" data-name="Path 450" class="cls-2" d="M102.273,154.31l-.161.579a1.062,1.062,0,0,0,0,.225h1.609l.225-.8Z" transform="translate(20.746 44.993)"/>
    <path id="Path_451" data-name="Path 451" class="cls-2" d="M96.453,154.34l-.129.627a.338.338,0,0,0,0,.177h1.609l.177-.8Z" transform="translate(17.22 45.011)"/>
    <path id="Path_452" data-name="Path 452" class="cls-2" d="M91.61,154.36h0v.177h0Z" transform="translate(14.357 45.023)"/>
    <path id="Path_453" data-name="Path 453" class="cls-2" d="M94.99,181.527a2.8,2.8,0,0,1-.643-2.252l8.9-55.739a2.831,2.831,0,0,1,1.8-2.172l1.528-9.652a.8.8,0,0,0-.788-.933H85.644a.8.8,0,0,0,0,1.609H97.226l.145-.933a.807.807,0,0,1,1.593.257l-.113.676h5.984L92.722,189.426a3.3,3.3,0,0,0,.467,2.268h2.847a1.754,1.754,0,0,1-1.721-2.027l1.206-7.641a2.46,2.46,0,0,1-.531-.5Z" transform="translate(10.237 18.499)"/>
    <path id="Path_454" data-name="Path 454" class="cls-2" d="M94.754,161.864a.8.8,0,0,1-.8.8h99.172a.82.82,0,0,0,.8-.8.8.8,0,0,0-.8-.8H94.03A.8.8,0,0,1,94.754,161.864Z" transform="translate(15.782 49.101)"/>
    <path id="Path_455" data-name="Path 455" class="cls-2" d="M99.658,119.556l-8.9,55.739a2.8,2.8,0,0,0,.643,2.252,2.461,2.461,0,0,0,.531.466l.145-.933-.145-.161a1.946,1.946,0,0,1-.37-1.5l1.882-11.839.257-1.609L95.83,148.64l.257-1.609L98.226,133.7l.241-1.609,1.995-12.467a2.059,2.059,0,0,1,.386-.853,1.994,1.994,0,0,1,.467-.434l.145-1.013A2.831,2.831,0,0,0,99.658,119.556Z" transform="translate(13.822 22.48)"/>
    <path id="Path_456" data-name="Path 456" class="cls-2" d="M93.9,146.09h-.756L91.26,157.929a1.946,1.946,0,0,0,.37,1.5h.177Z" transform="translate(14.128 39.99)"/>
    <path id="Path_457" data-name="Path 457" class="cls-2" d="M98.319,118.26H97.9a2.058,2.058,0,0,0-.386.853L95.52,131.579h.772Z" transform="translate(16.737 23.052)"/>
    <path id="Path_458" data-name="Path 458" class="cls-2" d="M95.427,136.81H94.7L92.58,150.145h.756Z" transform="translate(14.948 34.342)"/>
    <path id="Path_459" data-name="Path 459" class="cls-2" d="M96.859,127.54H96.2L94.06,140.875h.708Z" transform="translate(15.849 28.7)"/>
    <path id="Path_460" data-name="Path 460" class="cls-2" d="M97.486,118a2,2,0,0,0-.466.434h.386Z" transform="translate(17.65 22.893)"/>
    <path id="Path_461" data-name="Path 461" class="cls-2" d="M95.5,128.149h.547l.257-1.609h-.676l-.241,1.609Z" transform="translate(16.658 28.091)"/>
    <path id="Path_462" data-name="Path 462" class="cls-2" d="M94.049,137.419h.6l.241-1.609h-.708l-.257,1.609Z" transform="translate(15.763 33.733)"/>
    <path id="Path_463" data-name="Path 463" class="cls-2" d="M92.549,146.7h.627l.257-1.609h-.756L92.42,146.7Z" transform="translate(14.85 39.381)"/>
    <path id="Path_464" data-name="Path 464" class="cls-2" d="M91.48,154.376l.145.161v-.177Z" transform="translate(14.278 45.023)"/>
    <path id="Path_465" data-name="Path 465" class="cls-2" d="M107.038,166.27a4.568,4.568,0,1,0,4.568,4.568A4.568,4.568,0,0,0,107.038,166.27Zm0,7.528a1.233,1.233,0,1,1,0,.08Z" transform="translate(20.967 52.272)"/>
    <path id="Path_466" data-name="Path 466" class="cls-2" d="M135.418,166.27a4.568,4.568,0,1,0,4.568,4.568A4.568,4.568,0,0,0,135.418,166.27Zm0,7.528a1.233,1.233,0,1,1,0,.08Z" transform="translate(38.24 52.272)"/>
    <path id="Path_467" data-name="Path 467" class="cls-2" d="M93.138,191.041H88.184a1.754,1.754,0,0,1-1.721-2.027L98.849,111.8H97.24L84.886,188.837a3.346,3.346,0,0,0,3.314,3.877h7.834a3.394,3.394,0,0,1-2.558-1.174A1.936,1.936,0,0,0,93.138,191.041Z" transform="translate(10.239 19.12)"/>
    <path id="Path_468" data-name="Path 468" class="cls-2" d="M94.277,111.691a.807.807,0,0,0-1.593-.257l-.145.933h1.609Z" transform="translate(14.924 18.489)"/>
    <path id="Path_469" data-name="Path 469" class="cls-2" d="M90.338,161.494a3.394,3.394,0,0,0,2.558,1.174h3.539a.8.8,0,1,0,0-1.609H90A3.972,3.972,0,0,1,90.338,161.494Z" transform="translate(13.378 49.101)"/>
    <path id="Path_470" data-name="Path 470" class="cls-2" d="M105.439,109.744h-.8a.8.8,0,0,1-.8-.8v13.384h1.609Z" transform="translate(21.795 17.379)"/>
    <path id="Path_471" data-name="Path 471" class="cls-2" d="M104.634,110.935h.8v-4.987H111.2a.82.82,0,0,1-.8-.8v-.8h-5.759a.8.8,0,0,0-.8.8v6.6A.8.8,0,0,1,104.634,110.935Z" transform="translate(21.795 14.58)"/>
    <path id="Path_472" data-name="Path 472" class="cls-2" d="M132.87,105.949h18.242v4.987h.8a.82.82,0,0,1,.8.8v-6.6a.8.8,0,0,0-.8-.8H135.83a9.217,9.217,0,0,1-2.96,1.512Z" transform="translate(39.469 14.58)"/>
    <path id="Path_473" data-name="Path 473" class="cls-2" d="M145.014,109.744h-.8v12.579h1.609V108.94A.8.8,0,0,1,145.014,109.744Z" transform="translate(46.371 17.379)"/>
    <path id="Path_474" data-name="Path 474" class="cls-2" d="M132.588,105.434a4.118,4.118,0,0,1-1.19-.354.836.836,0,0,1-.708.418h1.9Z" transform="translate(38.143 15.03)"/>
    <path id="Path_475" data-name="Path 475" class="cls-2" d="M108.714,105.949h35.84a.836.836,0,0,0,.708-.418,8.375,8.375,0,0,1-.756-.386H108.714v-.8h-.8v.8a.82.82,0,0,0,.8.8Z" transform="translate(24.278 14.58)"/>
    <path id="Path_476" data-name="Path 476" class="cls-2" d="M109.214,104.34h-.8v.8H144.2c-.418-.241-.836-.515-1.271-.8Z" transform="translate(24.582 14.58)"/>
    <path id="Path_477" data-name="Path 477" class="cls-2" d="M104.506,118.064h.933v-.8H103.83v.8Z" transform="translate(21.795 22.443)"/>
    <path id="Path_478" data-name="Path 478" class="cls-2" d="M144.21,118.064h1.609v-.8H144.21Z" transform="translate(46.371 22.443)"/>
    <path id="Path_479" data-name="Path 479" class="cls-2" d="M104.345,118.516l.161-.756h-.676a.82.82,0,0,0,.515.756Z" transform="translate(21.795 22.747)"/>
    <path id="Path_480" data-name="Path 480" class="cls-2" d="M144.28,118.146a.756.756,0,0,0,.692.418.8.8,0,0,0,.8-.8H144.36a.869.869,0,0,1,0,.354Z" transform="translate(46.414 22.747)"/>
    <path id="Path_481" data-name="Path 481" class="cls-2" d="M144.363,118.134a.868.868,0,0,0,0-.354h-.193a.772.772,0,0,0,.113.386Z" transform="translate(46.347 22.76)"/>
    <path id="Path_482" data-name="Path 482" class="cls-2" d="M104.44,118.564a.8.8,0,0,0,.8-.8h-.933l-.161.756a.917.917,0,0,0,.29.048Z" transform="translate(21.99 22.747)"/>
    <path id="Path_483" data-name="Path 483" class="cls-2" d="M132.505,105.046c.129-.273.273-.579.45-.885-.161-.257-.322-.531-.515-.82-.37-.547-.8-1.126-1.271-1.721v1.319a15.713,15.713,0,0,1,1.335,2.107Z" transform="translate(38.435 12.924)"/>
    <path id="Path_484" data-name="Path 484" class="cls-2" d="M129.048,104.171c-2.67-2.67-3.137-4.311-2.429-5.019s2.349-.257,5.019,2.413a13.944,13.944,0,0,1,1.4,1.609v-1.206c-.273-.306-.547-.611-.82-.885a12.386,12.386,0,0,0-3.507-2.654,2.22,2.22,0,0,0-2.654.225c-.853.853-1.126,2.622,2.413,6.161a39.008,39.008,0,0,0,4.054,3.41h.515V107.6a31.657,31.657,0,0,1-3.989-3.426Z" transform="translate(34.991 10.776)"/>
    <path id="Path_485" data-name="Path 485" class="cls-2" d="M130.69,104.383h.177l-.177-.113Z" transform="translate(38.143 14.537)"/>
    <path id="Path_486" data-name="Path 486" class="cls-2" d="M130.69,102.265c.29.354.563.708.8,1.046v-1.319c-.257-.322-.515-.66-.8-.981Z" transform="translate(38.143 12.553)"/>
    <path id="Path_487" data-name="Path 487" class="cls-2" d="M130.19,104v.627h.8v-.113Z" transform="translate(37.838 14.373)"/>
    <path id="Path_488" data-name="Path 488" class="cls-2" d="M130.19,101.663c.29.322.547.627.8.949v-1.271c-.257-.306-.531-.611-.8-.9Z" transform="translate(37.838 12.206)"/>
    <path id="Path_489" data-name="Path 489" class="cls-2" d="M132.308,105.091a.5.5,0,0,1,0-.129,4.826,4.826,0,0,1-1.062-.4v.45a1.046,1.046,0,0,1-.1.386,4.118,4.118,0,0,0,1.19.354Z" transform="translate(38.423 14.713)"/>
    <path id="Path_490" data-name="Path 490" class="cls-2" d="M131.494,104.694l-.627-.354h-.177v.8h0a8.375,8.375,0,0,0,.756.386,1.046,1.046,0,0,0,.1-.386Z" transform="translate(38.143 14.58)"/>
    <path id="Path_491" data-name="Path 491" class="cls-2" d="M131.189,104.34H129.87c.434.29.853.563,1.271.8h0Z" transform="translate(37.643 14.58)"/>
    <path id="Path_492" data-name="Path 492" class="cls-2" d="M132.043,105.384c-.225-.1-.515-.257-.853-.434v.547h1.046a4.2,4.2,0,0,1,.29-.949,15.715,15.715,0,0,0-1.335-2.107v1.416A10.054,10.054,0,0,1,132.043,105.384Z" transform="translate(38.447 13.423)"/>
    <path id="Path_493" data-name="Path 493" class="cls-2" d="M126.312,98.866c-.708.708-.241,2.349,2.429,5.019a31.659,31.659,0,0,0,3.989,3.346v-.981a29.774,29.774,0,0,1-3.426-2.944c-2.622-2.606-2.574-3.716-2.429-3.877a.322.322,0,0,1,.225,0,1.914,1.914,0,0,1,.676.177,10.746,10.746,0,0,1,2.992,2.316,26.714,26.714,0,0,1,1.963,2.188v-1.239c-.45-.531-.917-1.046-1.4-1.609C128.661,98.609,127.036,98.142,126.312,98.866Z" transform="translate(35.298 11.061)"/>
    <path id="Path_494" data-name="Path 494" class="cls-2" d="M131.494,104.251v-1.416c-.241-.338-.515-.692-.8-1.046v1.319C131,103.511,131.269,103.9,131.494,104.251Z" transform="translate(38.143 13.028)"/>
    <path id="Path_495" data-name="Path 495" class="cls-2" d="M131.494,104.195l-.8-.515v.949l.177.113h.627Z" transform="translate(38.143 14.178)"/>
    <path id="Path_496" data-name="Path 496" class="cls-2" d="M130.19,104.371l.8.515v-.949l-.8-.547Z" transform="translate(37.838 14.001)"/>
    <path id="Path_497" data-name="Path 497" class="cls-2" d="M130.19,102.469c.29.354.563.692.8,1.03v-1.319c-.257-.322-.515-.627-.8-.949Z" transform="translate(37.838 12.687)"/>
    <path id="Path_498" data-name="Path 498" class="cls-2" d="M131.19,104.34v.354a4.827,4.827,0,0,0,1.062.4,1.689,1.689,0,0,1,0-.756Z" transform="translate(38.447 14.58)"/>
    <path id="Path_499" data-name="Path 499" class="cls-2" d="M130.8,104.34l.627.354v-.354Z" transform="translate(38.21 14.58)"/>
    <path id="Path_500" data-name="Path 500" class="cls-2" d="M137.062,101.588c2.686-2.67,4.311-3.217,5.019-2.413s.257,2.349-2.413,5.019a28.584,28.584,0,0,1-4.971,3.973h1.48a37.145,37.145,0,0,0,4.054-3.41c3.555-3.539,3.217-5.308,2.429-6.161s-2.606-1.126-6.161,2.429a31.706,31.706,0,0,0-4.2,5.308,8.718,8.718,0,0,1,.434.869,26.656,26.656,0,0,1,4.327-5.614Z" transform="translate(39.122 10.752)"/>
    <path id="Path_501" data-name="Path 501" class="cls-2" d="M132.87,105.032v.82a9.217,9.217,0,0,0,2.96-1.512h-1.48A7.19,7.19,0,0,1,132.87,105.032Z" transform="translate(39.469 14.58)"/>
    <path id="Path_502" data-name="Path 502" class="cls-2" d="M132.374,104.941h.193a4.231,4.231,0,0,1,.338-.853,8.715,8.715,0,0,0-.434-.869c-.177.306-.322.611-.45.885a7.641,7.641,0,0,1,.354.836Z" transform="translate(38.952 13.898)"/>
    <path id="Path_503" data-name="Path 503" class="cls-2" d="M131.852,104.81a.5.5,0,0,0,0,.129Z" transform="translate(38.847 14.866)"/>
    <path id="Path_504" data-name="Path 504" class="cls-2" d="M132.29,104.669a.691.691,0,0,1,.193,0,7.639,7.639,0,0,0-.354-.869,4.2,4.2,0,0,0-.29.949Z" transform="translate(38.842 14.251)"/>
    <path id="Path_505" data-name="Path 505" class="cls-2" d="M131.9,105.032a.772.772,0,0,1,.4-.692h-.45a1.689,1.689,0,0,0,0,.756h0Z" transform="translate(38.826 14.58)"/>
    <path id="Path_506" data-name="Path 506" class="cls-2" d="M134.533,107.855a28.586,28.586,0,0,0,4.971-3.973c2.67-2.67,3.217-4.311,2.413-5.019s-2.332-.257-5.019,2.413a26.656,26.656,0,0,0-4.327,5.614,3.314,3.314,0,0,1,.306.965Zm2.944-6c2.075-2.091,3.217-2.493,3.652-2.493a.305.305,0,0,1,.225,0c.161.161.193,1.271-2.429,3.877a23.132,23.132,0,0,1-5.888,4.44,23.132,23.132,0,0,1,4.44-5.823Z" transform="translate(39.287 11.064)"/>
    <path id="Path_507" data-name="Path 507" class="cls-2" d="M132.79,104.63a.788.788,0,0,1,.129.4h0a7.19,7.19,0,0,0,1.48-.692H132.79A.917.917,0,0,1,132.79,104.63Z" transform="translate(39.421 14.58)"/>
    <path id="Path_508" data-name="Path 508" class="cls-2" d="M132.762,104.705H133a3.315,3.315,0,0,0-.306-.965,4.228,4.228,0,0,0-.338.853h0A.772.772,0,0,1,132.762,104.705Z" transform="translate(39.159 14.214)"/>
    <path id="Path_509" data-name="Path 509" class="cls-2" d="M132.851,104.34h-.241a.836.836,0,0,1,.29.29A.917.917,0,0,0,132.851,104.34Z" transform="translate(39.311 14.58)"/>
    <rect id="Rectangle_466" data-name="Rectangle 466" class="cls-2" width="1.609" height="5.003" transform="translate(170.731 120.528)"/>
    <g id="Group_410" data-name="Group 410">
      <rect id="Rectangle_467" data-name="Rectangle 467" class="cls-2" width="1.609" height="12.579" transform="translate(170.731 127.124)"/>
    </g>
    <rect id="Rectangle_468" data-name="Rectangle 468" class="cls-2" width="1.609" height="0.804" transform="translate(170.731 139.703)"/>
    <path id="Path_510" data-name="Path 510" class="cls-2" d="M132.674,118.564a.8.8,0,0,0,.8-.8H131.87A.8.8,0,0,0,132.674,118.564Z" transform="translate(38.861 22.747)"/>
    <path id="Path_511" data-name="Path 511" class="cls-2" d="M132.546,105.317a1.608,1.608,0,0,1-.418,0h1.351v-.1a1.963,1.963,0,0,1-.515,0,1.753,1.753,0,0,1-.418.1Z" transform="translate(38.861 15.115)"/>
    <path id="Path_512" data-name="Path 512" class="cls-2" d="M132.546,105.517a1.062,1.062,0,0,1-.45-.257,1,1,0,0,1-.225-.37v.66h.257A1.609,1.609,0,0,0,132.546,105.517Z" transform="translate(38.861 14.914)"/>
    <path id="Path_513" data-name="Path 513" class="cls-2" d="M132.74,105.333a.981.981,0,0,1-.45.257,1.753,1.753,0,0,0,.418,0,1.963,1.963,0,0,0,.515,0v-.82a.435.435,0,0,1-.193,0,1.094,1.094,0,0,1-.29.563Z" transform="translate(39.116 14.841)"/>
    <path id="Path_514" data-name="Path 514" class="cls-2" d="M132.413,104.383a.225.225,0,0,1,0-.113h-.193Z" transform="translate(39.074 14.537)"/>
    <path id="Path_515" data-name="Path 515" class="cls-2" d="M132.509,105.834a.981.981,0,0,0,.45-.257,1.094,1.094,0,0,0,.29-.515h-.611c-.113,0-.129-.386,0-.692h-.145c0,.306.08.563,0,.692a.692.692,0,0,1-.563,0v.129a1,1,0,0,0,.225.37,1.062,1.062,0,0,0,.354.273Z" transform="translate(38.897 14.598)"/>
    <path id="Path_516" data-name="Path 516" class="cls-2" d="M132.323,104.343h0a.691.691,0,0,0-.193,0Z" transform="translate(39.019 14.577)"/>
    <path id="Path_517" data-name="Path 517" class="cls-2" d="M131.87,105.032h0a.692.692,0,0,0,.563,0c.129-.129.113-.386,0-.692h-.209a.772.772,0,0,0-.354.692Z" transform="translate(38.86 14.58)"/>
    <path id="Path_518" data-name="Path 518" class="cls-2" d="M132.79,104.52a1.319,1.319,0,0,1,0,.45.434.434,0,0,0,.193,0h0A.788.788,0,0,0,132.79,104.52Z" transform="translate(39.421 14.689)"/>
    <path id="Path_519" data-name="Path 519" class="cls-2" d="M132.759,104.383a.773.773,0,0,0-.386-.113h0a.225.225,0,0,0,0,.113Z" transform="translate(39.162 14.537)"/>
    <path id="Path_520" data-name="Path 520" class="cls-2" d="M132.415,105.05c.113.113.338.113.611,0a1.319,1.319,0,0,0,0-.45.836.836,0,0,0-.29-.29H132.3C132.287,104.664,132.287,104.921,132.415,105.05Z" transform="translate(39.12 14.561)"/>
    <rect id="Rectangle_469" data-name="Rectangle 469" class="cls-2" width="18.242" height="1.609" transform="translate(172.339 125.515)"/>
    <rect id="Rectangle_470" data-name="Rectangle 470" class="cls-2" width="43.481" height="1.609" transform="translate(127.234 125.515)"/>
    <path id="Path_521" data-name="Path 521" class="cls-2" d="M145.014,108.44h-.8v1.609h.8a.8.8,0,0,0,.8-.8.82.82,0,0,0-.8-.8Z" transform="translate(46.371 17.075)"/>
    <path id="Path_522" data-name="Path 522" class="cls-2" d="M104.634,110.049h.8V108.44h-.8a.8.8,0,1,0,0,1.609Z" transform="translate(21.795 17.075)"/>
    <rect id="Rectangle_471" data-name="Rectangle 471" class="cls-2" width="1.609" height="1.609" transform="translate(170.731 125.515)"/>
    <path id="Path_523" data-name="Path 523" class="cls-2" d="M159.468,107.916a.82.82,0,0,0,.579.241.8.8,0,0,0,.563-.241l9.33-9.314a.82.82,0,0,0,0-1.142.8.8,0,0,0-1.142,0l-8.751,8.751L151.28,97.46a.8.8,0,0,0-1.142,0,.82.82,0,0,0,0,1.142Z" transform="translate(49.838 10.247)"/>
    <path id="Path_524" data-name="Path 524" class="cls-2" d="M158.588,97.143a.82.82,0,0,0,.579.241.8.8,0,0,0,.563-.241l6.933-6.933a.8.8,0,0,0,0-1.142.82.82,0,0,0-1.142,0L159.167,95.5l-6.435-6.435a.82.82,0,0,0-1.142,0,.8.8,0,0,0,0,1.142Z" transform="translate(50.718 5.144)"/>
    <path id="Path_525" data-name="Path 525" class="cls-2" d="M157.655,86.345a.836.836,0,0,0,.579.225.8.8,0,0,0,.563-.225l4.536-4.552a.8.8,0,0,0-1.126-1.126l-3.973,3.925-3.989-3.973a.8.8,0,1,0-1.126,1.126Z" transform="translate(51.651 0)"/>
    <path id="Path_526" data-name="Path 526" class="cls-2" d="M112.509,104.629V91.76H110.9v12.869a3.443,3.443,0,0,0,3.379,3.442h.916v-1.609h-.917A1.834,1.834,0,0,1,112.509,104.629Z" transform="translate(26.098 6.923)"/>
    <path id="Path_527" data-name="Path 527" class="cls-2" d="M93.009,165.94H80.574a.8.8,0,1,0,0,1.609H93.009a.8.8,0,1,0,0-1.609Z" transform="translate(7.151 52.071)"/>
    <path id="Path_528" data-name="Path 528" class="cls-2" d="M87.726,171.16h-18.9a.8.8,0,1,0,0,1.609h18.9a.8.8,0,1,0,0-1.609Z" transform="translate(0 55.248)"/>
    <path id="Path_529" data-name="Path 529" class="cls-2" d="M90.361,171.16H84.924a.82.82,0,0,0-.8.8.8.8,0,0,0,.8.8h5.437a.8.8,0,1,0,0-1.609Z" transform="translate(9.799 55.248)"/>
    <path id="Path_530" data-name="Path 530" class="cls-2" d="M95.357,171.16H92.574a.8.8,0,1,0,0,1.609h2.783a.8.8,0,1,0,0-1.609Z" transform="translate(14.455 55.248)"/>
  </g>
</svg>
