<svg xmlns="http://www.w3.org/2000/svg" viewBox="0 0 15.759 19.488">
  <defs>
    <style>
      .cls-1 {
        fill: #616161;
      }
    </style>
  </defs>
  <g id="delete-button" transform="translate(-46.155 0)">
    <g id="Group_163" data-name="Group 163" transform="translate(46.155)">
      <path id="Path_203" data-name="Path 203" class="cls-1" d="M59.688,2.335H56.654a2.637,2.637,0,0,0-5.239,0H48.381a2.229,2.229,0,0,0-2.226,2.226v.114a2.229,2.229,0,0,0,1.407,2.068V17.261a2.229,2.229,0,0,0,2.226,2.226h8.493a2.229,2.229,0,0,0,2.226-2.226V6.744a2.229,2.229,0,0,0,1.407-2.068V4.561A2.229,2.229,0,0,0,59.688,2.335ZM54.035,1.056a1.585,1.585,0,0,1,1.553,1.279H52.482A1.585,1.585,0,0,1,54.035,1.056Zm5.417,16.206a1.172,1.172,0,0,1-1.17,1.171H49.788a1.172,1.172,0,0,1-1.17-1.171V6.9H59.451ZM60.858,4.676a1.172,1.172,0,0,1-1.17,1.171H48.381a1.172,1.172,0,0,1-1.17-1.171V4.561a1.172,1.172,0,0,1,1.17-1.171H59.688a1.172,1.172,0,0,1,1.17,1.171v.114Z" transform="translate(-46.155)"/>
      <path id="Path_204" data-name="Path 204" class="cls-1" d="M158.6,256.571a.528.528,0,0,0,.528-.528V250.1a.528.528,0,1,0-1.056,0v5.944A.528.528,0,0,0,158.6,256.571Z" transform="translate(-153.554 -239.489)"/>
      <path id="Path_205" data-name="Path 205" class="cls-1" d="M228.673,256.571a.528.528,0,0,0,.528-.528V250.1a.528.528,0,1,0-1.056,0v5.944A.528.528,0,0,0,228.673,256.571Z" transform="translate(-220.793 -239.489)"/>
      <path id="Path_206" data-name="Path 206" class="cls-1" d="M298.742,256.571a.528.528,0,0,0,.528-.528V250.1a.528.528,0,1,0-1.056,0v5.944A.528.528,0,0,0,298.742,256.571Z" transform="translate(-288.032 -239.489)"/>
    </g>
  </g>
</svg>
