<?xml version="1.0" encoding="UTF-8" standalone="no"?>
<svg width="442px" height="441px" viewBox="0 0 442 441" version="1.1" xmlns="http://www.w3.org/2000/svg" xmlns:xlink="http://www.w3.org/1999/xlink">
    <!-- Generator: Sketch 3.8.1 (29687) - http://www.bohemiancoding.com/sketch -->
    <title>layer-2</title>
    <desc>Created with Sketch.</desc>
    <defs>
        <rect id="path-1" x="36" y="36" width="318" height="318" rx="28.8000004"></rect>
        <filter x="-50%" y="-50%" width="200%" height="200%" filterUnits="objectBoundingBox" id="filter-2">
            <feOffset dx="0" dy="3" in="SourceAlpha" result="shadowOffsetOuter1"></feOffset>
            <feGaussianBlur stdDeviation="17" in="shadowOffsetOuter1" result="shadowBlurOuter1"></feGaussianBlur>
            <feColorMatrix values="0 0 0 0 0   0 0 0 0 0.423878708   0 0 0 0 0.556600765  0 0 0 0.155570652 0" type="matrix" in="shadowBlurOuter1"></feColorMatrix>
        </filter>
    </defs>
    <g id="Page-1" stroke="none" stroke-width="1" fill="none" fill-rule="evenodd">
        <g id="Main_slide_2-Copy-6" transform="translate(-1051.000000, -288.000000)">
            <g id="layer-2" transform="translate(1076.000000, 311.000000)">
                <g id="Rectangle-149" transform="translate(195.000000, 195.000000) rotate(-15.000000) translate(-195.000000, -195.000000) ">
                    <use fill="#F9F9F9" fill-rule="evenodd" xlink:href="#path-1"></use>
                </g>
                <path d="M201.58491,216.654797 C199.993851,216.654797 198.702557,217.943188 198.702557,219.530671 C198.702557,221.118153 199.993851,222.406545 201.58491,222.406545 C203.175968,222.406545 204.467262,221.118153 204.467262,219.530671 C204.467262,217.943188 203.175968,216.654797 201.58491,216.654797 M201.58491,228.158293 C196.817498,228.158293 192.937851,224.287367 192.937851,219.530671 C192.937851,214.773975 196.817498,210.903048 201.58491,210.903048 C206.352321,210.903048 210.231968,214.773975 210.231968,219.530671 C210.231968,224.287367 206.352321,228.158293 201.58491,228.158293" id="Fill-2723" fill="#4E82F9" transform="translate(201.584910, 219.530671) rotate(-15.000000) translate(-201.584910, -219.530671) "></path>
                <path d="M177.222515,211.310561 C176.72675,211.310561 176.219456,211.189775 175.75828,210.913691 C174.38628,210.102694 173.936633,208.336908 174.743691,206.967991 C176.997691,203.160334 180.220162,199.973866 184.042162,197.753691 C187.985221,195.452991 192.498986,194.239373 197.087691,194.239373 C201.676397,194.239373 206.195927,195.452991 210.138986,197.753691 C213.96675,199.973866 217.183456,203.166086 219.431691,206.967991 C220.244515,208.336908 219.789103,210.096942 218.417103,210.913691 C217.045103,211.718936 215.286868,211.264547 214.46828,209.895631 C210.848044,203.787275 204.195574,199.991121 197.081927,199.991121 C189.974044,199.991121 183.321574,203.787275 179.701339,209.895631 C179.159456,210.804408 178.19675,211.310561 177.210986,211.310561 L177.222515,211.310561 Z" id="Fill-2724" fill="#4E82F9" transform="translate(197.088972, 202.775611) rotate(-15.000000) translate(-197.088972, -202.775611) "></path>
                <path d="M225.578211,199.389733 C224.701976,199.389733 223.831505,198.998615 223.266564,198.245135 C216.106799,188.714489 205.171152,183.238824 193.255505,183.238824 C181.334094,183.238824 170.398447,188.708737 163.244447,198.245135 C162.287505,199.51052 160.483152,199.769349 159.203388,198.814559 C157.935152,197.859768 157.675741,196.059471 158.632682,194.788335 C162.569976,189.536989 167.746682,185.182915 173.580564,182.20351 C179.714211,179.074559 186.326329,177.481324 193.255505,177.481324 C200.178917,177.481324 206.796799,179.074559 212.924682,182.20351 C218.758564,185.177163 223.93527,189.531237 227.872564,194.788335 C228.829505,196.059471 228.575858,197.859768 227.301858,198.814559 C226.783035,199.205677 226.177741,199.389733 225.578211,199.389733" id="Fill-2725" fill="#4E82F9" transform="translate(193.253475, 188.436269) rotate(-15.000000) translate(-193.253475, -188.436269) "></path>
                <path d="M234.066825,187.60376 C233.225178,187.60376 232.406589,187.247151 231.835883,186.55119 C221.378707,173.805316 205.923531,166.489092 189.430707,166.489092 C172.937883,166.489092 157.482707,173.805316 147.019766,186.55119 C146.016707,187.782064 144.200825,187.960368 142.967178,186.953812 C141.727766,185.947256 141.554825,184.135456 142.563648,182.904581 C154.121883,168.812798 171.202707,160.731592 189.430707,160.731592 C207.658707,160.731592 224.739531,168.812798 236.297766,182.904581 C237.306589,184.135456 237.122119,185.947256 235.888472,186.953812 C235.358119,187.390945 234.712472,187.60376 234.072589,187.60376 L234.066825,187.60376 Z" id="Fill-2726" fill="#4E82F9" transform="translate(189.428620, 174.168617) rotate(-15.000000) translate(-189.428620, -174.168617) "></path>
            </g>
        </g>
    </g>
</svg>