<?xml version="1.0" encoding="UTF-8" standalone="no"?>
<svg width="246px" height="246px" viewBox="0 0 246 246" version="1.1" xmlns="http://www.w3.org/2000/svg" xmlns:xlink="http://www.w3.org/1999/xlink">
    <!-- Generator: Sketch 3.8.1 (29687) - http://www.bohemiancoding.com/sketch -->
    <title>layer-1</title>
    <desc>Created with Sketch.</desc>
    <defs>
        <rect id="path-1" x="18" y="18" width="158" height="158" rx="28.8000004"></rect>
        <filter x="-50%" y="-50%" width="200%" height="200%" filterUnits="objectBoundingBox" id="filter-2">
            <feOffset dx="0" dy="3" in="SourceAlpha" result="shadowOffsetOuter1"></feOffset>
            <feGaussianBlur stdDeviation="17" in="shadowOffsetOuter1" result="shadowBlurOuter1"></feGaussianBlur>
            <feColorMatrix values="0 0 0 0 0   0 0 0 0 0.423878708   0 0 0 0 0.556600765  0 0 0 0.155570652 0" type="matrix" in="shadowBlurOuter1"></feColorMatrix>
        </filter>
    </defs>
    <g id="Page-1" stroke="none" stroke-width="1" fill="none" fill-rule="evenodd">
        <g id="Main_slide_2-Copy-6" transform="translate(-1241.000000, -197.000000)">
            <g id="layer-1" transform="translate(1266.000000, 220.000000)">
                <g id="Rectangle-149-Copy" transform="translate(97.000000, 97.000000) rotate(-15.000000) translate(-97.000000, -97.000000) ">
                    <use fill="black" fill-opacity="1" filter="url(#filter-2)" xlink:href="#path-1"></use>
                    <use fill="#F9F9F9" fill-rule="evenodd" xlink:href="#path-1"></use>
                </g>
                <path d="M96.9973333,72.7 C89.6453333,72.7 83.664,78.7561 83.664,86.2 C83.664,94.9858 87.5653333,104.1928 90.84,110.3677 C93.2453333,114.9064 95.664,118.5055 96.9973333,120.3847 C98.336,118.4974 100.770667,114.8767 103.178667,110.3245 C106.44,104.1604 110.330667,94.9696 110.330667,86.2 C110.330667,78.7561 104.349333,72.7 96.9973333,72.7 L96.9973333,72.7 Z M96.9973333,124 C96.5893333,124 96.2026667,123.811 95.9493333,123.4843 C95.7973333,123.2872 92.168,118.5865 88.4906667,111.6448 C86.3253333,107.5597 84.5973333,103.5475 83.3573333,99.7216 C81.792,94.8967 81,90.3472 81,86.2 C81,77.2684 88.1786667,70 97,70 C105.821333,70 113,77.2684 113,86.2 C113,90.3472 112.205333,94.894 110.642667,99.7216 C109.402667,103.5475 107.674667,107.5597 105.509333,111.6448 C101.829333,118.5865 98.2026667,123.2872 98.0506667,123.4843 C97.7973333,123.811 97.4106667,124 97.0026667,124 L96.9973333,124 Z" id="Fill-1535" fill="#4E82F9" transform="translate(97.000000, 97.000000) rotate(-15.000000) translate(-97.000000, -97.000000) "></path>
                <path d="M94.2021785,81.1686913 C91.2608452,81.1686913 88.8688452,83.5878913 88.8688452,86.5686913 C88.8688452,89.5494913 91.2608452,91.9686913 94.2021785,91.9686913 C97.1435118,91.9686913 99.5355118,89.5494913 99.5355118,86.5686913 C99.5355118,83.5878913 97.1435118,81.1686913 94.2021785,81.1686913 M94.2021785,94.6686913 C89.7915118,94.6686913 86.2021785,91.0344913 86.2021785,86.5686913 C86.2021785,82.1028913 89.7915118,78.4686913 94.2021785,78.4686913 C98.6128452,78.4686913 102.202179,82.1028913 102.202179,86.5686913 C102.202179,91.0344913 98.6128452,94.6686913 94.2021785,94.6686913" id="Fill-1536" fill="#4E82F9" transform="translate(94.202179, 86.568691) rotate(-15.000000) translate(-94.202179, -86.568691) "></path>
            </g>
        </g>
    </g>
</svg>