<?xml version="1.0" encoding="UTF-8" standalone="no"?>
<svg width="360px" height="360px" viewBox="0 0 360 360" xmlns="http://www.w3.org/2000/svg" xmlns:xlink="http://www.w3.org/1999/xlink">
    <defs>
        <rect id="path-1" x="29" y="29" width="251" height="251" rx="28.8000004"></rect>
        <filter x="-50%" y="-50%" width="200%" height="200%" filterUnits="objectBoundingBox" id="filter-2">
            <feOffset dx="0" dy="3" in="SourceAlpha" result="shadowOffsetOuter1"></feOffset>
            <feGaussianBlur stdDeviation="17" in="shadowOffsetOuter1" result="shadowBlurOuter1"></feGaussianBlur>
            <feColorMatrix values="0 0 0 0 0   0 0 0 0 0.423878708   0 0 0 0 0.556600765  0 0 0 0.155570652 0" type="matrix" in="shadowBlurOuter1"></feColorMatrix>
        </filter>
    </defs>
    <g id="Page-1" stroke="none" stroke-width="1" fill="none" fill-rule="evenodd">
        <g id="layer-3" transform="translate(24.000000, 22.000000)">
            <g id="Rectangle-149-Copy-2" transform="translate(154.500000, 154.500000) rotate(-15.000000) translate(-154.500000, -154.500000) ">
                <use fill="black" fill-opacity="1" filter="url(#filter-2)" xlink:href="#path-1"></use>
                <use fill="#F9F9F9" fill-rule="evenodd" xlink:href="#path-1"></use>
            </g>
            <g id="Fill-2087-+-Fill-2088" transform="translate(155.000000, 155.000000) rotate(-15.000000) translate(-155.000000, -155.000000) translate(123.000000, 123.000000)" fill="#4E82F9">
                <path d="M62.4053066,64 L1.60013607,64 C0.716860958,64 0,63.2832233 0,62.400052 L0,1.60202957 C0,0.859653715 0.50884327,0.216474635 1.23210477,0.0436802553 C1.95536628,-0.129114124 2.69782941,0.222874427 3.03065771,0.885252882 L6.23092985,7.28504472 C6.62456332,8.07541901 6.30453611,9.03538779 5.51406889,9.43217488 C4.72360167,9.82896198 3.76352003,9.50577249 3.36668629,8.7153982 L3.19707186,8.37620923 L3.19707186,60.7969042 L55.62393,60.7969042 L55.2847011,60.6273097 C54.4942339,60.2337225 54.1742067,59.2673539 54.5678402,58.4801795 C54.9614737,57.6898052 55.9247556,57.3698157 56.7152228,57.7634029 L63.1157671,60.9632988 C63.7782234,61.2960879 64.1270531,62.0384638 63.9574386,62.7616403 C63.7878242,63.4848168 63.1413692,63.9936002 62.3989061,63.9936002 L62.4053066,64 Z" id="Fill-2087"></path>
                <path d="M40.7781855,45.6129204 C39.8891869,45.6129204 39.1676808,44.8914143 39.1676808,44.0024158 C39.1676808,43.1134172 39.8891869,42.3919111 40.7781855,42.3919111 C41.667184,42.3919111 42.3886901,43.1134172 42.3886901,44.0024158 C42.3886901,44.8914143 41.667184,45.6129204 40.7781855,45.6129204 L40.7781855,45.6129204 Z M15.0101111,52.054939 C14.1211125,52.054939 13.3996065,51.3334329 13.3996065,50.4444343 C13.3996065,49.5554358 14.1211125,48.8339297 15.0101111,48.8339297 C15.8991097,48.8339297 16.6206158,49.5554358 16.6206158,50.4444343 C16.6206158,51.3334329 15.8991097,52.054939 15.0101111,52.054939 L15.0101111,52.054939 Z M24.673139,29.5078739 C25.5621376,29.5078739 26.2836436,30.22938 26.2836436,31.1183786 C26.2836436,32.0073772 25.5621376,32.7288832 24.673139,32.7288832 C23.7841404,32.7288832 23.0626343,32.0073772 23.0626343,31.1183786 C23.0626343,30.22938 23.7841404,29.5078739 24.673139,29.5078739 L24.673139,29.5078739 Z M50.4412133,13.4028275 C51.3302119,13.4028275 52.051718,14.1243336 52.051718,15.0133321 C52.051718,15.9023307 51.3302119,16.6238368 50.4412133,16.6238368 C49.5522148,16.6238368 48.8307087,15.9023307 48.8307087,15.0133321 C48.8307087,14.1243336 49.5522148,13.4028275 50.4412133,13.4028275 L50.4412133,13.4028275 Z M55.2727273,15.0133321 C55.2727273,12.3495574 53.104988,10.1818182 50.4412133,10.1818182 C47.7774386,10.1818182 45.6096994,12.3495574 45.6096994,15.0133321 C45.6096994,16.5594166 46.3408685,17.9380086 47.4746638,18.8205651 L40.6912182,39.1709018 C39.7893356,39.1870069 38.9486522,39.4511296 38.2303671,39.8988499 L29.2373092,32.7031152 C29.4112437,32.2070797 29.5078739,31.6723922 29.5078739,31.1151576 C29.5078739,28.4513829 27.3401347,26.2836436 24.67636,26.2836436 C22.0125853,26.2836436 19.8448461,28.4513829 19.8448461,31.1151576 C19.8448461,32.4164453 20.3634286,33.5985557 21.200891,34.4650072 L15.6092188,45.6483515 C15.4127373,45.6225834 15.2162557,45.6096994 15.0133321,45.6096994 C12.3495574,45.6096994 10.1818182,47.7774386 10.1818182,50.4412133 C10.1818182,53.104988 12.3495574,55.2727273 15.0133321,55.2727273 C17.6771068,55.2727273 19.8448461,53.104988 19.8448461,50.4412133 C19.8448461,49.1399256 19.3262636,47.9610362 18.4888011,47.0913637 L24.0804733,35.9080194 C24.2769548,35.9337875 24.4734364,35.9466715 24.67636,35.9466715 C25.6104527,35.9466715 26.4865672,35.6793277 27.2241784,35.2122814 L36.2172363,42.4112372 C36.0433018,42.9072726 35.9466715,43.4419601 35.9466715,43.9991947 C35.9466715,46.6629694 38.1144108,48.8307087 40.7781855,48.8307087 C43.4419601,48.8307087 45.6096994,46.6629694 45.6096994,43.9991947 C45.6096994,42.4563313 44.8785303,41.0745183 43.744735,40.1887408 L50.5281806,19.838404 C53.1500821,19.7900889 55.2727273,17.6448967 55.2727273,15.0101111 L55.2727273,15.0133321 Z" id="Fill-2088"></path>
            </g>
        </g>
    </g>
</svg>