<?xml version="1.0" encoding="UTF-8" standalone="no"?>
<svg width="135px" height="38px" viewBox="0 0 135 38" version="1.1" xmlns="http://www.w3.org/2000/svg" xmlns:xlink="http://www.w3.org/1999/xlink">
    <!-- Generator: Sketch 3.7 (28169) - http://www.bohemiancoding.com/sketch -->
    <title>logo</title>
    <desc>Created with Sketch.</desc>
    <defs></defs>
    <g id="Page-1" stroke="none" stroke-width="1" fill="none" fill-rule="evenodd">
        <g id="logo" fill="#FFFFFF">
            <path d="M13.8335449,21.2329873 L16.2357988,23.8357868 L14.9672507,25.0291838 C14.0959291,25.8536971 13.1103781,26.4716526 12.0166097,26.8882036 C10.9219825,27.3043252 9.78054693,27.488123 8.59659741,27.4464678 C7.41093015,27.4052421 6.28538366,27.1394225 5.22124622,26.6442851 C4.15796765,26.1568776 3.21836607,25.4693537 2.40630639,24.586008 C1.5663335,23.6743196 0.956537234,22.6630025 0.571764375,21.5404621 C0.189997556,20.4213571 0.0177945248,19.2880808 0.0568730182,18.141492 C0.0968103795,17.000486 0.346740963,15.8869636 0.804947035,14.8086548 C1.26401197,13.731205 1.94251769,12.7697022 2.84304076,11.9207112 C3.74270498,11.073438 4.74629223,10.4486115 5.85337307,10.0479496 C6.96260106,9.64728766 8.08256491,9.46735482 9.21369406,9.50600388 C10.3456821,9.54680012 11.4506157,9.80660768 12.5297834,10.28285 C13.6076626,10.7612394 14.5670183,11.4556342 15.4039851,12.3660343 L16.585358,13.6474653 L6.40691347,23.2487505 C7.3911762,23.7889785 8.44328948,23.9955362 9.56969483,23.8589763 C10.6961002,23.7267106 11.6941048,23.2487505 12.5658558,22.4272434 L13.8335449,21.2329873 L13.8335449,21.2329873 Z M5.2474417,14.4865793 C4.15796765,15.5129266 3.58639101,16.7733154 3.53528836,18.2673162 C3.50651628,19.0918295 3.66283026,19.8849941 4.00766575,20.6433746 C4.33446502,20.334182 4.83174959,19.8648107 5.49909001,19.2335427 C6.16728931,18.6061396 6.87456709,17.9379404 7.62478828,17.2315214 C8.37372117,16.5242436 9.09645857,15.8478851 9.79085335,15.204593 C10.486107,14.5647363 11.02247,14.065734 11.4042369,13.7007151 C10.4216919,13.161346 9.36786086,12.9522117 8.2427438,13.0715943 C7.11805617,13.1944125 6.1191927,13.6637838 5.2474417,14.4865793 L5.2474417,14.4865793 L5.2474417,14.4865793 Z" id="Fill-3"></path>
            <polygon id="Fill-5" points="18.9755447 3.51664504 22.4930385 3.51664504 22.4930385 27.4945214 18.9755447 27.4945214"></polygon>
            <path d="M45.2041706,21.2046877 L47.6038477,23.8096343 L46.3370174,25.0051785 C45.4661253,25.8236797 44.4814331,26.4446413 43.3872353,26.8586157 C42.2934669,27.2751667 41.1511725,27.4598232 39.9689408,27.4173092 C38.7832734,27.3743659 37.6585859,27.1102639 36.5965956,26.6194209 C35.5324582,26.1260012 34.5954332,25.4419128 33.7812263,24.5598555 C32.9429712,23.6490259 32.3318866,22.6347029 31.9488315,21.5155979 C31.5640587,20.3947752 31.3940028,19.2614989 31.4330813,18.1183456 C31.4730186,16.9713273 31.7212315,15.8608111 32.1811553,14.7837905 C32.6402202,13.7063407 33.3204436,12.7444086 34.2175313,11.8967059 C35.1163366,11.0494326 36.1199238,10.4250356 37.2300107,10.0265208 C38.334515,9.62414117 39.4561966,9.44420832 40.5873257,9.48457512 C41.7201725,9.52537135 42.8242473,9.78303176 43.9029855,10.2627095 C44.9782883,10.7368046 45.9363555,11.4329172 46.7767578,12.3415995 L47.9559836,13.6264661 L37.778398,23.2221686 C38.7635196,23.7623966 39.8186388,23.9689543 40.9420382,23.8323942 C42.0684435,23.6975521 43.0647304,23.2221686 43.9373403,22.4006613 L45.2041706,21.2046877 L45.2041706,21.2046877 Z M36.6206439,14.4630034 C35.5307405,15.4893506 34.9591638,16.7510277 34.9089199,18.2433108 C34.8801479,19.0678241 35.0368913,19.8575532 35.380009,20.6167925 C35.7050907,20.3101766 36.2023752,19.8412348 36.8714333,19.209108 C37.5379149,18.5817048 38.2477694,17.9130761 38.9962728,17.2062277 C39.7452057,16.49895 40.4675136,15.825168 41.1631967,15.1835936 C41.8558737,14.5428782 42.3930957,14.0400109 42.7748625,13.6779981 C41.7936058,13.1403467 40.7402042,12.9269181 39.6137988,13.0480185 C38.4903995,13.1695482 37.4923949,13.6410667 36.6206439,14.4630034 L36.6206439,14.4630034 L36.6206439,14.4630034 Z" id="Fill-6"></path>
            <path d="M28.5280462,15.4741916 L28.5280462,27.6151495 C28.5280462,28.8699557 28.2982989,30.0345806 27.8375162,31.1141777 C27.3754454,32.1946336 26.7428891,33.1471182 25.9389886,33.9729198 C25.135947,34.7991508 24.1937689,35.4450194 23.1137424,35.9122436 C22.0337159,36.3777501 20.8875565,36.6105033 19.6769821,36.6105033 L17.8952605,36.6105033 L17.8952605,33.0517839 L19.6769821,33.0517839 C20.4126025,33.0517839 21.1117211,32.9126472 21.769614,32.6339446 C22.429654,32.3530947 23.0012306,31.9661747 23.4890677,31.472755 C23.9769048,30.9844886 24.3586715,30.4026056 24.6360859,29.7348356 C24.9139296,29.0696424 25.0504897,28.3619352 25.0504897,27.6151495 L25.0504897,15.4741916 L28.5280462,15.4741916 L28.5280462,15.4741916 Z M28.4825261,9.47929308 L28.4825261,12.2444186 L25.0066875,12.2444186 L25.0066875,9.47757536 L28.4825261,9.47929308 L28.4825261,9.47929308 Z" id="Fill-8"></path>
            <path d="M76.9442811,21.0851762 L80.6782097,21.0851762 C80.4604867,22.1274125 79.8064587,23.1331469 78.8604156,23.8691967 C77.9336971,24.5876399 76.6793204,25.0724708 75.2617587,25.0724708 C72.3167004,25.0724708 69.7353727,22.8458555 69.7353727,19.4687867 C69.7353727,16.1458263 72.2982348,13.9192111 75.2437226,13.9192111 C76.4431317,13.9192111 77.4978215,14.2601817 78.370002,14.8528007 C78.9514556,15.2298436 79.4603349,15.7151041 79.8786036,16.2896868 L81.5873214,16.2896868 C80.5330611,14.1163214 78.0062715,12.6081492 75.279795,12.6081492 C71.3895524,12.6081492 68.2263416,15.481492 68.2263416,19.4687867 C68.2263416,23.402402 71.3350143,26.3839623 75.2617587,26.3839623 C77.9697695,26.3839623 80.6601735,24.9286104 81.8235101,22.43274 C82.2237426,21.6065091 82.4053932,20.6359882 82.4234295,19.8638659 L78.4172397,19.8638659 L76.9442811,21.0851762 L76.9442811,21.0851762 Z" id="Fill-14"></path>
            <rect id="Rectangle-3" x="57.0601473" y="0.215220949" width="0.93903437" height="37.5613748"></rect>
            <path d="M103.327847,12.6080204 C99.5286443,12.6080204 96.3108954,15.4272545 96.3108954,19.5227666 L96.3108954,19.5408027 C96.3108954,23.3305577 99.3465643,26.3657972 103.327847,26.3657972 C107.291093,26.3657972 110.344798,23.3842369 110.344798,19.4871234 C110.344798,15.5891511 107.272627,12.6080204 103.327847,12.6080204 M103.345883,25.0543057 C100.201567,25.0543057 97.8199265,22.6121147 97.8199265,19.4871235 L97.8199265,19.4690872 C97.8199265,16.3973459 100.165065,13.9190823 103.327847,13.9190823 C106.52713,13.9190823 108.853803,16.4510252 108.853803,19.4871235 C108.853803,22.5223629 106.52713,25.0543057 103.345883,25.0543057" id="Fill-16"></path>
            <path d="M122.214955,12.8416325 L120.72396,12.8416325 L120.72396,21.2645507 C120.72396,22.306787 120.72396,23.0789094 120.087968,23.959249 C119.633627,24.6235835 118.742981,25.0543057 117.779331,25.0543057 C116.797645,25.0543057 115.906999,24.6055472 115.434622,23.9412129 C114.798201,23.0432663 114.798201,22.2707146 114.798201,21.2645507 L114.798201,12.8416325 L113.289599,12.8416325 L113.289599,21.2645507 C113.289599,22.7199026 113.398675,24.2285042 114.816237,25.3596333 C115.652345,26.0961126 116.834147,26.3657972 117.779331,26.3657972 C118.942668,26.3657972 119.94239,25.9883247 120.687888,25.3596333 C122.032875,24.3362921 122.232991,22.8096542 122.214955,21.2645507 L122.214955,12.8416325 L122.214955,12.8416325 Z" id="Fill-18"></path>
            <path d="M132.830435,13.6858138 C131.994327,13.0571225 131.10368,12.8415465 129.212883,12.8415465 L125.668334,12.8415465 L125.668334,26.0797082 L127.07559,24.913795 L127.07559,14.1470259 L128.779584,14.1470259 L128.779584,14.1526086 L129.285457,14.1526086 C130.430757,14.1526086 131.121717,14.2784326 131.79421,14.7095844 C132.39413,15.0866274 132.811969,15.9308947 132.811969,16.8825204 C132.811969,17.8165394 132.39413,18.6608065 131.812246,19.0378497 C131.418026,19.2903568 131.015217,19.4363644 130.524803,19.5153802 L128.847434,20.905458 L129.339995,20.905458 C131.085644,20.905458 131.994327,20.6903116 132.884973,20.007941 C133.703044,19.3792497 134.266462,18.1038307 134.266462,16.8468774 C134.266462,15.6075308 133.721081,14.3681844 132.830435,13.6858138" id="Fill-20"></path>
            <path d="M93.4759868,19.7024846 C94.0394043,18.9479691 94.2936291,17.995914 94.2751636,17.0983969 C94.2751636,15.5893658 93.530525,14.1705159 92.4397626,13.5237883 C91.7488033,13.0926366 90.7671172,12.8414177 88.6581669,12.8414177 L85.15055,12.8414177 L85.15055,25.7115545 L86.6591517,24.4606132 L86.6591517,14.1524796 L88.7676725,14.1524796 C89.9855474,14.1524796 90.8216554,14.2061589 91.4945784,14.6373107 C92.3306863,15.1762504 92.8215295,16.2180571 92.8215295,17.2061848 C92.8215295,18.1578106 92.512337,18.9660054 91.8029121,19.648376 C91.0763097,20.3131397 89.7669655,20.3307466 88.8222106,20.3307466 L88.3854763,20.3307466 L92.1851083,26.1319703 L93.8212517,26.1319703 L90.4763905,21.1569776 C91.7127309,21.0311534 92.6759513,20.7799345 93.4759868,19.7024846" id="Fill-22"></path>
        </g>
    </g>
</svg>