<svg xmlns="http://www.w3.org/2000/svg" viewBox="0 0 32.994 11.009">
  <defs>
    <style>
      .cls-1 {
        fill: gray;
      }
    </style>
  </defs>
  <g id="Group_1" data-name="Group 1" transform="translate(-1072 -2692)">
    <g id="back" transform="translate(1098.729 2692)">
      <path id="Path_2" data-name="Path 2" class="cls-1" d="M117.966,5.5,112.612.532a.3.3,0,0,1,0-.441.353.353,0,0,1,.475,0l5.593,5.193a.3.3,0,0,1,0,.441l-5.593,5.191a.351.351,0,0,1-.236.092.34.34,0,0,1-.236-.092.3.3,0,0,1,0-.441Z" transform="translate(-112.513 0)"/>
    </g>
    <rect id="Rectangle_45" data-name="Rectangle 45" class="cls-1" width="32.994" height="0.851" rx="0.425" transform="translate(1072 2697.106)"/>
  </g>
</svg>
