<svg xmlns="http://www.w3.org/2000/svg" xmlns:xlink="http://www.w3.org/1999/xlink"><defs><path id="a" d="M0 49.994h49.984V.016H0z"/></defs><symbol id="arrow-bottom" viewBox="0 0 50 27"><title>arrow-bottom</title><g><path d="M48.095.829L24.343 24.581l-.635.635 1.27 1.27.635-.635L49.365 2.1 50 1.464 48.73.194l-.635.635z"/><path d="M.635 2.099L24.387 25.85l.635.635 1.27-1.27-.635-.635L1.905.83 1.27.194 0 1.464l.635.635z"/></g></symbol><symbol id="arrow-left-b" viewBox="0 0 27 50"><title>arrow-left-2</title><g><path d="M24.84 48.9L1.16 25.313l-.265-.263-.527.529.264.263L24.313 49.43l.265.264.526-.529z"/><path d="M24.539.816L.858 24.405l-.793.79 1.58 1.586.793-.79 23.68-23.589.794-.79-1.58-1.586z"/></g></symbol><symbol id="arrow-right-b" viewBox="0 0 28 50"><title>arrow-right-b</title><g><path d="M2.523.89l23.68 23.588.265.264.527-.53-.265-.262L3.05.36 2.785.098l-.527.529z"/><path d="M3.073 49.184l23.681-23.589.793-.79-1.58-1.586-.793.79-23.68 23.589-.794.79 1.58 1.586z"/></g></symbol><symbol id="arrow-right" viewBox="0 0 27 50"><title>arrow-right</title><g><path d="M.829 1.905l23.752 23.752.635.635 1.27-1.27-.635-.635L2.1.635 1.464 0 .194 1.27l.635.635z"/><path d="M2.099 49.365L25.85 25.613l.635-.635-1.27-1.27-.635.635L.83 48.095l-.635.635L1.464 50l.635-.635z"/></g></symbol><symbol id="arrow-top" viewBox="0 0 36 50"><title>arrow-top</title><path d="M16.611.399L.395 16.614a1.352 1.352 0 0 0 0 1.91 1.357 1.357 0 0 0 1.911 0L16.214 4.617V48.65a1.352 1.352 0 0 0 2.703 0V4.617l13.905 13.907a1.357 1.357 0 0 0 1.911 0c.268-.267.397-.613.397-.957a1.36 1.36 0 0 0-.397-.959L18.517.393a1.357 1.357 0 0 0-1.91 0L16.61.4z"/></symbol><symbol id="burger" viewBox="0 0 50 42"><title>burger</title><g><path d="M0 0h50v2H0zM0 20h50v2H0zM0 40h50v2H0z"/></g></symbol><symbol id="close" viewBox="0 0 50 50"><title>close</title><g><path d="M2.67.81l46.52 46.519-1.861 1.861L.809 2.67z"/><path d="M49.19 2.67L2.672 49.19.81 47.33 47.33.809z"/></g></symbol><symbol id="facebook" viewBox="0 0 24 50"><title>facebook</title><path d="M0 16.258h5.081V11.315c0-2.174.056-5.533 1.637-7.615C8.385 1.498 10.67 0 14.605 0c6.407 0 9.11.914 9.11.914l-1.27 7.53s-2.12-.613-4.094-.613c-1.977 0-3.746.706-3.746 2.684v5.743h8.102l-.565 7.349h-7.537V49.15H5.08V23.607H0v-7.35z"/></symbol><symbol id="instagram" viewBox="0 0 50 50"><title>instagram</title><g><mask id="b"><use xlink:href="#a"/></mask><path d="M24.992.016c-6.787 0-7.638.029-10.304.15-2.66.121-4.477.544-6.067 1.162-1.643.638-3.037 1.493-4.426 2.882C2.805 5.6 1.95 6.994 1.312 8.637.694 10.227.272 12.044.15 14.704.03 17.369 0 18.22 0 25.008c0 6.787.029 7.638.15 10.304.122 2.66.544 4.477 1.162 6.067.639 1.643 1.493 3.037 2.883 4.426 1.39 1.39 2.783 2.244 4.426 2.883 1.59.618 3.407 1.04 6.067 1.162 2.666.121 3.517.15 10.304.15 6.788 0 7.639-.029 10.304-.15 2.66-.122 4.477-.544 6.067-1.162 1.643-.639 3.037-1.493 4.427-2.883 1.389-1.39 2.244-2.783 2.882-4.426.618-1.59 1.04-3.407 1.162-6.067.121-2.666.15-3.517.15-10.304 0-6.788-.029-7.639-.15-10.304-.122-2.66-.544-4.477-1.162-6.067C48.034 6.994 47.18 5.6 45.79 4.21c-1.39-1.389-2.784-2.244-4.427-2.882C39.773.71 37.956.288 35.296.166 32.631.045 31.78.016 24.992.016zm0 4.503c6.673 0 7.464.025 10.1.146 2.436.11 3.76.518 4.64.86 1.166.453 1.999.995 2.873 1.87.875.874 1.417 1.707 1.87 2.873.342.88.75 2.204.86 4.64.12 2.636.146 3.427.146 10.1s-.025 7.464-.146 10.099c-.11 2.437-.518 3.76-.86 4.64-.453 1.167-.995 2-1.87 2.874-.874.875-1.707 1.416-2.873 1.87-.88.342-2.204.75-4.64.86-2.636.12-3.426.146-10.1.146-6.674 0-7.464-.026-10.099-.146-2.437-.11-3.76-.518-4.64-.86-1.167-.454-2-.995-2.874-1.87-.875-.874-1.416-1.707-1.87-2.873-.342-.881-.75-2.204-.86-4.641-.12-2.635-.146-3.426-.146-10.1 0-6.672.026-7.463.146-10.098.11-2.437.518-3.76.86-4.64.454-1.167.995-2 1.87-2.874.874-.875 1.707-1.417 2.873-1.87.881-.342 2.204-.75 4.641-.86 2.635-.12 3.426-.146 10.1-.146z" mask="url(#b)"/><path d="M24.992 33.339a8.33 8.33 0 1 1 0-16.662 8.33 8.33 0 0 1 0 16.662zm0-21.165c-7.088 0-12.834 5.746-12.834 12.834 0 7.088 5.746 12.834 12.834 12.834 7.088 0 12.834-5.746 12.834-12.834 0-7.088-5.746-12.834-12.834-12.834zM41.332 11.667a2.999 2.999 0 1 1-5.998 0 2.999 2.999 0 0 1 5.998 0" mask="url(#b)"/></g></symbol><symbol id="logo-2" viewBox="0 0 50 35"><title>logo-2</title><g><path d="M14.661 18.407l2.476 2.682-1.307 1.23a9.1 9.1 0 0 1-3.041 1.916 8.94 8.94 0 0 1-3.525.576 8.894 8.894 0 0 1-3.479-.827 9.019 9.019 0 0 1-2.901-2.121 8.803 8.803 0 0 1-1.891-3.14 9.743 9.743 0 0 1-.53-3.503 9.583 9.583 0 0 1 .77-3.435 8.81 8.81 0 0 1 2.1-2.976 8.928 8.928 0 0 1 3.104-1.93A9.187 9.187 0 0 1 9.9 6.32a9.223 9.223 0 0 1 3.418.8 8.907 8.907 0 0 1 2.962 2.148l1.218 1.32-10.491 9.896a5.289 5.289 0 0 0 3.26.63c1.16-.137 2.19-.63 3.088-1.476l1.306-1.231zm-8.849-6.954C4.689 12.511 4.1 13.81 4.047 15.35c-.03.85.132 1.667.487 2.449.337-.319.85-.802 1.537-1.453.69-.647 1.418-1.335 2.191-2.063a319.58 319.58 0 0 1 2.233-2.09c.716-.659 1.27-1.173 1.663-1.55a5.427 5.427 0 0 0-3.259-.648c-1.159.127-2.189.61-3.087 1.458zM19.961.147h3.625V24.86h-3.625V.147zM46.994 18.378l2.473 2.684-1.306 1.233a9.127 9.127 0 0 1-3.04 1.91 8.91 8.91 0 0 1-3.523.576 8.975 8.975 0 0 1-3.476-.823 9.152 9.152 0 0 1-2.901-2.122 8.815 8.815 0 0 1-1.889-3.138 9.684 9.684 0 0 1-.532-3.501 9.52 9.52 0 0 1 .771-3.437c.474-1.11 1.175-2.102 2.1-2.976a8.86 8.86 0 0 1 3.104-1.927 9.087 9.087 0 0 1 3.46-.559 9.148 9.148 0 0 1 3.418.802c1.108.489 2.095 1.206 2.962 2.143l1.215 1.324-10.49 9.89a5.297 5.297 0 0 0 3.26.629c1.162-.14 2.189-.63 3.088-1.476l1.306-1.232zm-8.847-6.949c-1.123 1.058-1.712 2.358-1.764 3.896-.03.85.132 1.664.485 2.447l1.538-1.451 2.19-2.064c.771-.73 1.516-1.424 2.233-2.085.714-.66 1.267-1.179 1.66-1.552a5.423 5.423 0 0 0-3.257-.65c-1.158.126-2.186.612-3.085 1.46z"/><path d="M29.806 12.471v12.514c0 1.293-.236 2.493-.711 3.606a9.588 9.588 0 0 1-1.957 2.946 8.998 8.998 0 0 1-2.912 1.999 8.856 8.856 0 0 1-3.542.72h-1.836v-3.668h1.836c.758 0 1.479-.144 2.157-.43a5.479 5.479 0 0 0 2.954-2.989 5.613 5.613 0 0 0 .427-2.184V12.47h3.584zm-.047-6.178v2.85h-3.582V6.29l3.582.002z"/></g></symbol><symbol id="logo" viewBox="0 0 100 29"><title>logo</title><g><path d="M10.247 16.469l1.78 1.928-.94.884A6.54 6.54 0 0 1 8.9 20.658a6.425 6.425 0 0 1-2.533.413 6.392 6.392 0 0 1-2.5-.594 6.482 6.482 0 0 1-2.086-1.524 6.327 6.327 0 0 1-1.358-2.256 7.002 7.002 0 0 1-.382-2.518c.03-.845.215-1.67.554-2.469.34-.798.843-1.51 1.51-2.14a6.416 6.416 0 0 1 2.23-1.386 6.603 6.603 0 0 1 2.489-.402c.838.03 1.657.223 2.456.576.799.354 1.51.868 2.13 1.543l.874.949-7.54 7.112c.73.4 1.51.553 2.344.452.834-.098 1.573-.452 2.219-1.06l.94-.885zm-6.36-4.997c-.807.76-1.23 1.693-1.268 2.8-.022.61.094 1.198.35 1.76l1.104-1.044 1.575-1.483c.555-.524 1.09-1.025 1.604-1.502.515-.474.913-.843 1.196-1.114a3.9 3.9 0 0 0-2.342-.466c-.833.091-1.573.44-2.219 1.049zM14.056 3.346h2.606v17.761h-2.606V3.346zM33.485 16.448l1.777 1.93-.938.885a6.56 6.56 0 0 1-2.185 1.373 6.403 6.403 0 0 1-2.532.414 6.45 6.45 0 0 1-2.498-.591 6.578 6.578 0 0 1-2.086-1.526 6.335 6.335 0 0 1-1.357-2.255 6.96 6.96 0 0 1-.382-2.516c.03-.85.213-1.673.554-2.47.34-.798.844-1.511 1.508-2.139a6.368 6.368 0 0 1 2.232-1.385 6.531 6.531 0 0 1 2.487-.402c.839.03 1.657.221 2.456.577a6.409 6.409 0 0 1 2.128 1.54l.874.951-7.539 7.108c.73.4 1.511.554 2.343.452.835-.1 1.573-.452 2.22-1.06l.938-.886zm-6.359-4.994c-.807.76-1.23 1.695-1.268 2.8-.02.611.095 1.196.35 1.758l1.104-1.042c.494-.465 1.02-.96 1.574-1.484.555-.524 1.09-1.023 1.605-1.498.513-.475.911-.847 1.194-1.115a3.897 3.897 0 0 0-2.341-.467c-.833.09-1.572.44-2.218 1.048z"/><path d="M21.132 12.203v8.993c0 .93-.17 1.793-.512 2.592a6.89 6.89 0 0 1-1.406 2.118 6.467 6.467 0 0 1-2.093 1.436c-.8.345-1.649.518-2.545.518h-1.32v-2.636h1.32c.544 0 1.062-.104 1.55-.31a3.938 3.938 0 0 0 2.123-2.147 4.034 4.034 0 0 0 .307-1.57v-8.994h2.576zm-.034-4.44V9.81h-2.575V7.76l2.575.001zM56.996 16.36h2.766c-.162.771-.646 1.516-1.347 2.062a4.355 4.355 0 0 1-2.666.89c-2.181 0-4.093-1.648-4.093-4.15 0-2.461 1.898-4.11 4.08-4.11.889 0 1.67.252 2.316.69.43.28.808.64 1.117 1.065h1.266c-.78-1.61-2.653-2.727-4.672-2.727-2.882 0-5.225 2.129-5.225 5.082 0 2.914 2.303 5.122 5.211 5.122 2.006 0 4-1.078 4.861-2.926.296-.612.431-1.331.444-1.903h-2.967l-1.091.904zM42.267.9h.696v27.823h-.696zM76.54 10.08c-2.815 0-5.199 2.088-5.199 5.122v.013c0 2.808 2.249 5.056 5.198 5.056 2.936 0 5.198-2.209 5.198-5.095 0-2.888-2.276-5.096-5.198-5.096m.014 9.22c-2.33 0-4.094-1.81-4.094-4.124v-.014c0-2.275 1.737-4.11 4.08-4.11 2.37 0 4.093 1.875 4.093 4.124 0 2.248-1.723 4.123-4.08 4.123M90.53 10.253h-1.105v6.24c0 .771 0 1.343-.47 1.995-.337.492-.997.811-1.711.811-.727 0-1.387-.332-1.737-.824-.471-.665-.471-1.237-.471-1.983v-6.239h-1.118v6.24c0 1.077.081 2.195 1.131 3.033.62.545 1.495.745 2.195.745.862 0 1.602-.28 2.154-.745.997-.758 1.145-1.89 1.132-3.034v-6.239zM98.393 10.878c-.62-.465-1.28-.625-2.68-.625h-2.625v9.806l1.042-.864V11.22h1.262v.004h.375c.848 0 1.36.093 1.858.413.445.279.754.904.754 1.61 0 .691-.31 1.317-.74 1.596a2.4 2.4 0 0 1-.954.354l-1.242 1.03h.364c1.293 0 1.967-.16 2.626-.666.606-.465 1.024-1.41 1.024-2.341 0-.918-.404-1.836-1.064-2.342M69.241 15.335c.418-.559.606-1.264.592-1.929 0-1.118-.551-2.169-1.36-2.648-.51-.319-1.238-.505-2.8-.505h-2.599v9.533l1.118-.926v-7.636h1.562c.902 0 1.521.04 2.02.36.62.398.983 1.17.983 1.902 0 .705-.23 1.304-.755 1.81-.538.492-1.508.505-2.208.505h-.323l2.814 4.297h1.212l-2.477-3.685c.915-.094 1.629-.28 2.221-1.078"/></g></symbol><symbol id="marker" viewBox="0 0 34 50"><title>marker</title><path d="M15.617.018C12.966.28 10.86.896 8.82 2.005 3.57 4.858.255 10.178.012 16.115c-.024.558-.012 1.163.03 1.543.51 4.68 4.436 12.627 11.655 23.6 1.95 2.96 5.972 8.719 6.097 8.725.041 0 1.809-2.77 2.876-4.508 7.314-11.934 11.845-21.441 12.735-26.72.35-2.058.184-4.342-.469-6.62A16.782 16.782 0 0 0 24.443 1.84C22.68.938 21.056.428 18.998.131c-.617-.095-2.853-.166-3.38-.113zM17.29 11.97c1.192.13 2.093.575 2.953 1.441.884.896 1.317 1.874 1.376 3.12.12 2.455-1.488 4.525-3.896 5.018-.659.13-1.685.089-2.284-.095a4.826 4.826 0 0 1-2.022-1.216c-.86-.848-1.311-1.768-1.436-2.912-.296-2.658 1.637-5.083 4.277-5.362.231-.024.433-.048.444-.054.006 0 .273.024.588.06z"/></symbol><symbol id="oval" viewBox="0 0 35 50"><title>oval</title><path d="M1.206 48.63c13.065 4.499 27.304-2.446 31.803-15.512 4.5-13.065-2.446-27.304-15.511-31.803a25.05 25.05 0 0 0-6.442-1.31 1.787 1.787 0 0 0-.245 3.565c1.866.129 3.719.503 5.523 1.125 11.2 3.856 17.152 16.06 13.296 27.26C25.773 43.154 13.569 49.107 2.37 45.25a1.787 1.787 0 0 0-1.164 3.38z"/></symbol><symbol id="plane" viewBox="0 0 50 45"><title>plane</title><path d="M49.584.318a1.246 1.246 0 0 0-1.318-.22l-47.5 20a1.25 1.25 0 0 0 .09 2.338L15 27.153v14.098a1.245 1.245 0 0 0 1.25 1.25c.373 0 .728-.165.97-.46l6.91-8.505 11.243 11.105c.235.235.55.358.875.358.105 0 .21-.013.312-.038.425-.11.763-.437.888-.86l12.5-42.5A1.249 1.249 0 0 0 49.58.316l.003.002z"/></symbol></svg>